<svg xmlns="http://www.w3.org/2000/svg" viewBox="0 0 500 500"><g id="freepik--background-complete--inject-27"><rect y="382.4" width="500" height="0.25" style="fill:#ebebeb"></rect><rect x="416.78" y="398.49" width="33.12" height="0.25" style="fill:#ebebeb"></rect><rect x="322.53" y="401.21" width="8.69" height="0.25" style="fill:#ebebeb"></rect><rect x="396.59" y="389.21" width="19.19" height="0.25" style="fill:#ebebeb"></rect><rect x="52.46" y="390.89" width="43.19" height="0.25" style="fill:#ebebeb"></rect><rect x="104.56" y="390.89" width="6.33" height="0.25" style="fill:#ebebeb"></rect><rect x="131.47" y="395.11" width="93.68" height="0.25" style="fill:#ebebeb"></rect><path d="M237,337.8H43.91a5.71,5.71,0,0,1-5.7-5.71V60.66A5.71,5.71,0,0,1,43.91,55H237a5.71,5.71,0,0,1,5.71,5.71V332.09A5.71,5.71,0,0,1,237,337.8ZM43.91,55.2a5.46,5.46,0,0,0-5.45,5.46V332.09a5.46,5.46,0,0,0,5.45,5.46H237a5.47,5.47,0,0,0,5.46-5.46V60.66A5.47,5.47,0,0,0,237,55.2Z" style="fill:#ebebeb"></path><path d="M453.31,337.8H260.21a5.72,5.72,0,0,1-5.71-5.71V60.66A5.72,5.72,0,0,1,260.21,55h193.1A5.71,5.71,0,0,1,459,60.66V332.09A5.71,5.71,0,0,1,453.31,337.8ZM260.21,55.2a5.47,5.47,0,0,0-5.46,5.46V332.09a5.47,5.47,0,0,0,5.46,5.46h193.1a5.47,5.47,0,0,0,5.46-5.46V60.66a5.47,5.47,0,0,0-5.46-5.46Z" style="fill:#ebebeb"></path><path d="M99.19,265.62c0-.22.74-21.67,4.23-25.07s7.29-.12,7.45,0l.35-.41s-4.44-3.63-8.18,0-4.36,24.55-4.39,25.44Z" style="fill:#e0e0e0"></path><path d="M98.89,269.84c0-.26,2.39-25.76-6.93-36.45l-.41.35c9.16,10.52,6.82,35.79,6.8,36Z" style="fill:#e0e0e0"></path><path d="M99.24,267.14l.54,0c0-.29-1.82-29,5-35.28l-.37-.4C97.4,237.88,99.16,266,99.24,267.14Z" style="fill:#e0e0e0"></path><path d="M98.35,267.12h.55c0-.79-.23-19.39-5.51-22.42a3.76,3.76,0,0,0-3.42-.33c-3.2,1.32-4.78,7-4.85,7.25l.53.14c0-.06,1.58-5.67,4.53-6.89a3.2,3.2,0,0,1,2.93.31C98.13,248.05,98.35,266.93,98.35,267.12Z" style="fill:#e0e0e0"></path><path d="M100.41,267.14l.54,0c0-.15-.8-14.7,3.13-19.83a3.66,3.66,0,0,1,3.08-1.76c2.57.18,4.73,3.95,4.75,4l.48-.27c-.1-.17-2.33-4.06-5.19-4.26a4.13,4.13,0,0,0-3.55,2C99.6,252.24,100.37,266.53,100.41,267.14Z" style="fill:#e0e0e0"></path><path d="M99.55,269.12c.1-1.41,2.56-34.64-1.77-40.5l-.44.33c4.21,5.69,1.69,39.78,1.66,40.13Z" style="fill:#e0e0e0"></path><path d="M88.79,247.74s2.6.95,1.83,3.21-9,6-9,6-3.44-3.15-.28-8.28S88.72,246.12,88.79,247.74Z" style="fill:#ebebeb"></path><path d="M100.08,243.43s-2.77-.11-2.92,2.27,6,9,6,9,4.39-1.59,3.44-7.54S100.77,242,100.08,243.43Z" style="fill:#ebebeb"></path><path d="M102.42,232s-1.84-.19-1.69-1.32,7.16-4,11.3.66c0,0-2.65,4.56-6.48,4.62S102.42,232,102.42,232Z" style="fill:#ebebeb"></path><path d="M99,229.3s1.67.8,2.13-.23-4-7.19-9.94-5.42c0,0-.16,5.27,3.06,7.35S99,229.3,99,229.3Z" style="fill:#ebebeb"></path><path d="M107.72,246.83s-1.28-1,.1-1.53,8.11-.36,8.18,6.31c0,0-7.85,1.31-8.82-1.23S107.72,246.83,107.72,246.83Z" style="fill:#ebebeb"></path><path d="M91.71,231.86s1.27-1-.1-1.53-8.11-.36-8.18,6.31c0,0,7.85,1.31,8.82-1.23S91.71,231.86,91.71,231.86Z" style="fill:#ebebeb"></path><path d="M95.86,237.23s.11-1.25-.9-.76-4.52,4.28-.87,7.88c0,0,4.9-3.63,4-5.52S95.86,237.23,95.86,237.23Z" style="fill:#ebebeb"></path><path d="M108.85,239s-.76-1,.36-1.12,6.1,1.21,4.94,6.2c0,0-6.08-.46-6.34-2.53S108.85,239,108.85,239Z" style="fill:#ebebeb"></path><polygon points="88.31 285.62 109.17 285.62 111.42 262.78 86.05 262.78 88.31 285.62" style="fill:#f0f0f0"></polygon><rect x="84.94" y="260.26" width="27.6" height="5.04" transform="translate(197.48 525.55) rotate(180)" style="fill:#e6e6e6"></rect><path d="M334.14,376.57h-19.6l10.3-100c.44-4.23,3.67-7.67,7.23-7.67h85.51L405.05,376.57Z" style="fill:#f5f5f5"></path><path d="M396.3,376.57h19.6l10.3-100c.44-4.23-2.09-7.67-5.64-7.67h-6.74c-3.55,0-6.78,3.44-7.22,7.67Z" style="fill:#f0f0f0"></path><path d="M389.08,376.45l3.55-48.38a4.35,4.35,0,0,1,3.36-4.18l1.46-.22c2.43-.37,4.3-2.7,4.52-5.6l.64-8.82c.27-3.61-2.12-6.73-5.17-6.73H430.2c3,0,5.43,3.12,5.17,6.73l-.65,8.82c-.21,2.9-2.09,5.23-4.51,5.6l-1.46.22a4.35,4.35,0,0,0-3.37,4.18l-3.55,48.38c-.26,3.53-2.73,6.24-5.7,6.24H383.37C386.34,382.69,388.82,380,389.08,376.45Z" style="fill:#e6e6e6"></path><path d="M298.94,316c-.56-7.6-5.89-13.43-12.29-13.43h28.51c6.4,0,11.74,5.83,12.3,13.43l2.81,38.36H301.76Z" style="fill:#e6e6e6"></path><path d="M274,302.52h12.67c6.4,0,11.73,5.83,12.29,13.43l2.82,38.36h67.91L372.49,316c.55-7.6,5.89-13.43,12.29-13.43h12.66c3.05,0,5.44,3.12,5.17,6.73l-.64,8.82c-.22,2.9-2.09,5.23-4.52,5.6l-1.46.22a4.35,4.35,0,0,0-3.36,4.18l-3.55,48.38c-.26,3.53-2.74,6.24-5.71,6.24H288.05c-3,0-5.44-2.71-5.7-6.24l-3.55-48.38a4.35,4.35,0,0,0-3.37-4.18l-1.46-.22c-2.42-.37-4.3-2.7-4.51-5.6l-.65-8.82C268.55,305.64,270.94,302.52,274,302.52Z" style="fill:#f0f0f0"></path><rect x="85.48" y="290.51" width="75.81" height="81.59" transform="translate(246.76 662.61) rotate(180)" style="fill:#e6e6e6"></rect><rect x="73.9" y="284.44" width="9.53" height="98.25" transform="translate(157.33 667.12) rotate(180)" style="fill:#e6e6e6"></rect><rect x="143" y="296.93" width="6.21" height="30.49" transform="translate(292.22 624.35) rotate(180)" style="fill:#fafafa"></rect><rect x="117.25" y="296.93" width="6.21" height="30.49" transform="translate(240.71 624.35) rotate(180)" style="fill:#f5f5f5"></rect><rect x="136.79" y="299.07" width="6.21" height="28.35" transform="translate(279.8 626.49) rotate(180)" style="fill:#f5f5f5"></rect><rect x="123.46" y="299.07" width="6.21" height="28.35" transform="translate(253.14 626.49) rotate(180)" style="fill:#fafafa"></rect><rect x="129.67" y="296.93" width="4.01" height="30.49" transform="translate(263.36 624.35) rotate(180)" style="fill:#ebebeb"></rect><rect x="133.69" y="299.07" width="3.11" height="28.35" transform="translate(270.48 626.49) rotate(180)" style="fill:#fafafa"></rect><rect x="111.04" y="296.93" width="6.21" height="30.49" transform="translate(228.29 624.35) rotate(180)" style="fill:#ebebeb"></rect><rect x="104.83" y="299.07" width="6.21" height="28.35" transform="translate(215.87 626.49) rotate(180)" style="fill:#e6e6e6"></rect><rect x="91.5" y="299.07" width="6.21" height="28.35" transform="translate(189.21 626.49) rotate(180)" style="fill:#e6e6e6"></rect><rect x="97.71" y="296.93" width="4.01" height="30.49" transform="translate(199.43 624.35) rotate(180)" style="fill:#fafafa"></rect><rect x="101.72" y="299.07" width="3.11" height="28.35" transform="translate(206.55 626.49) rotate(180)" style="fill:#ebebeb"></rect><rect x="88.39" y="297.65" width="3.11" height="29.77" transform="translate(179.89 625.07) rotate(180)" style="fill:#fafafa"></rect><rect x="88.39" y="337.8" width="6.21" height="30.49" style="fill:#fafafa"></rect><rect x="114.15" y="337.8" width="6.21" height="30.49" style="fill:#fafafa"></rect><rect x="94.6" y="339.94" width="6.21" height="28.35" style="fill:#f0f0f0"></rect><rect x="107.93" y="339.94" width="6.21" height="28.35" style="fill:#ebebeb"></rect><rect x="103.92" y="337.8" width="4.01" height="30.49" style="fill:#fafafa"></rect><rect x="100.81" y="339.94" width="3.11" height="28.35" style="fill:#f5f5f5"></rect><rect x="120.36" y="337.8" width="6.21" height="30.49" style="fill:#ebebeb"></rect><rect x="126.57" y="339.94" width="6.21" height="28.35" style="fill:#f5f5f5"></rect><rect x="139.9" y="339.94" width="6.21" height="28.35" style="fill:#e6e6e6"></rect><rect x="135.88" y="337.8" width="4.01" height="30.49" style="fill:#fafafa"></rect><rect x="149.22" y="337.8" width="4.01" height="30.49" style="fill:#fafafa"></rect><rect x="132.78" y="339.94" width="3.11" height="28.35" style="fill:#ebebeb"></rect><rect x="146.11" y="338.52" width="3.11" height="29.77" style="fill:#f0f0f0"></rect><path d="M83.32,284.44v98.25H88.4v-5.51h75.28V284.44H83.32Zm5.08,48.1h70.49v35.75H88.4Zm0-39.21h70.49v34.12H88.4Z" style="fill:#f0f0f0"></path><rect x="161.41" y="290.51" width="75.81" height="81.59" style="fill:#e6e6e6"></rect><rect x="224.77" y="376.18" width="9.53" height="6.5" style="fill:#e6e6e6"></rect><rect x="163.96" y="296.93" width="6.21" height="30.49" style="fill:#fafafa"></rect><rect x="189.71" y="296.93" width="6.21" height="30.49" style="fill:#f5f5f5"></rect><rect x="170.17" y="299.07" width="6.21" height="28.35" style="fill:#f5f5f5"></rect><rect x="183.5" y="299.07" width="6.21" height="28.35" style="fill:#fafafa"></rect><rect x="179.49" y="296.93" width="4.01" height="30.49" style="fill:#ebebeb"></rect><rect x="176.38" y="299.07" width="3.11" height="28.35" style="fill:#fafafa"></rect><rect x="191.83" y="296.93" width="6.21" height="30.49" style="fill:#ebebeb"></rect><rect x="198.04" y="299.07" width="6.21" height="28.35" style="fill:#e6e6e6"></rect><rect x="211.37" y="299.07" width="6.21" height="28.35" style="fill:#e6e6e6"></rect><rect x="207.36" y="296.93" width="4.01" height="30.49" style="fill:#fafafa"></rect><rect x="204.25" y="299.07" width="3.11" height="28.35" style="fill:#ebebeb"></rect><rect x="217.58" y="297.65" width="3.11" height="29.77" style="fill:#f5f5f5"></rect><rect x="217.4" y="337.8" width="6.21" height="30.49" transform="translate(441 706.08) rotate(180)" style="fill:#fafafa"></rect><rect x="191.64" y="337.8" width="6.21" height="30.49" transform="translate(389.5 706.08) rotate(180)" style="fill:#fafafa"></rect><rect x="211.19" y="339.94" width="6.21" height="28.35" transform="translate(428.58 708.23) rotate(180)" style="fill:#f5f5f5"></rect><rect x="197.85" y="339.94" width="6.21" height="28.35" transform="translate(401.92 708.23) rotate(180)" style="fill:#ebebeb"></rect><rect x="204.07" y="337.8" width="4.01" height="30.49" transform="translate(412.15 706.08) rotate(180)" style="fill:#fafafa"></rect><rect x="208.08" y="339.94" width="3.11" height="28.35" transform="translate(419.26 708.23) rotate(180)" style="fill:#f5f5f5"></rect><rect x="189.53" y="337.8" width="6.21" height="30.49" transform="translate(385.26 706.08) rotate(180)" style="fill:#ebebeb"></rect><rect x="183.32" y="339.94" width="6.21" height="28.35" transform="translate(372.84 708.23) rotate(180)" style="fill:#f5f5f5"></rect><rect x="169.98" y="339.94" width="6.21" height="28.35" transform="translate(346.18 708.23) rotate(180)" style="fill:#e6e6e6"></rect><rect x="176.2" y="337.8" width="4.01" height="30.49" transform="translate(356.4 706.08) rotate(180)" style="fill:#fafafa"></rect><rect x="163.68" y="337.8" width="4.01" height="30.49" transform="translate(331.38 706.08) rotate(180)" style="fill:#fafafa"></rect><rect x="180.21" y="339.94" width="3.11" height="28.35" transform="translate(363.52 708.23) rotate(180)" style="fill:#ebebeb"></rect><rect x="166.88" y="338.52" width="3.11" height="29.77" transform="translate(336.86 706.81) rotate(180)" style="fill:#ebebeb"></rect><path d="M236.83,284.44H159v92.74h75.28v5.51h5.08V284.44Zm-2.54,83.85H163.8V332.54h70.49Zm0-40.84H163.8V293.33h70.49Z" style="fill:#f0f0f0"></path><rect x="306.26" y="96.34" width="112.19" height="124.08" transform="translate(724.71 316.76) rotate(180)" style="fill:#e0e0e0"></rect><rect x="302.68" y="96.34" width="116.36" height="124.08" transform="translate(721.71 316.76) rotate(180)" style="fill:#f0f0f0"></rect><rect x="307.6" y="100.3" width="106.7" height="114.42" transform="translate(721.9 315.02) rotate(180)" style="fill:#fff"></rect><rect x="307.6" y="100.3" width="3.09" height="114.42" transform="translate(618.28 315.02) rotate(180)" style="fill:#e0e0e0"></rect><rect x="360.92" y="132.01" width="3.09" height="104.22" transform="translate(178.34 546.59) rotate(-90)" style="fill:#e0e0e0"></rect><rect x="307.6" y="177.4" width="108.36" height="5.18" transform="translate(723.55 359.98) rotate(180)" style="fill:#f0f0f0"></rect><rect x="88.75" y="94.97" width="31.01" height="43.87" transform="translate(221.17 12.65) rotate(90)" style="fill:#e0e0e0"></rect><rect x="90.78" y="97.04" width="26.96" height="39.75" transform="translate(221.17 12.65) rotate(90)" style="fill:#ebebeb"></rect><rect x="103.97" y="133.92" width="31.01" height="43.87" transform="translate(275.33 36.39) rotate(90)" style="fill:#e0e0e0"></rect><rect x="105.99" y="135.99" width="26.96" height="39.75" transform="translate(275.33 36.39) rotate(90)" style="fill:#ebebeb"></rect><rect x="134.52" y="92.91" width="27.92" height="39.5" style="fill:#e0e0e0"></rect><rect x="136.34" y="94.77" width="24.28" height="35.79" style="fill:#ebebeb"></rect><rect x="147.31" y="140.36" width="31" height="43.87" style="fill:#e0e0e0"></rect><rect x="149.33" y="142.42" width="26.96" height="39.75" style="fill:#ebebeb"></rect><rect x="176.95" y="103.1" width="24.28" height="34.35" transform="translate(68.81 309.36) rotate(-90)" style="fill:#e0e0e0"></rect><rect x="178.53" y="104.71" width="21.11" height="31.12" transform="translate(68.81 309.36) rotate(-90)" style="fill:#ebebeb"></rect></g><g id="freepik--Shadow--inject-27"><ellipse id="freepik--path--inject-27" cx="250" cy="416.24" rx="193.89" ry="11.32" style="fill:#f5f5f5"></ellipse></g><g id="freepik--Plant--inject-27"><path d="M391.75,396.57s1.35-9.92,7.69-11,4.43-5.88,6.08-7.74,6,3.62,2.27,8.93-.67,3.63-2.27,8.57S391.17,404.79,391.75,396.57Z" style="fill:#263238"></path><path d="M391.75,396.57s1.35-9.92,7.69-11,4.43-5.88,6.08-7.74,6,3.62,2.27,8.93-.67,3.63-2.27,8.57S391.17,404.79,391.75,396.57Z" style="fill:#fff;opacity:0.2;isolation:isolate"></path><path d="M393.86,403.4l-.18,0a.5.5,0,0,1-.29-.65c0-.1,3.93-10.52.16-26.39a67.33,67.33,0,0,0-4.92-13.2c-3.66-8-6.83-14.83-2.13-27.67,1.44-4,2.95-7.66,4.4-11.23C396.27,311,400.51,300.62,396,291a.5.5,0,0,1,.25-.66.49.49,0,0,1,.66.24c4.65,10,.34,20.61-5.12,34-1.45,3.57-2.95,7.26-4.4,11.21-4.55,12.44-1.61,18.82,2.11,26.9a69.23,69.23,0,0,1,5,13.39c3.85,16.2,0,26.55-.2,27A.48.48,0,0,1,393.86,403.4Z" style="fill:#263238"></path><path d="M395.67,401s4.1-6.18-1.81-9.36-7.1-.62-10.76-2.9S376.66,381,376,384.5s3.6,5.55,2.11,7.17S388.1,403.81,395.67,401Z" style="fill:#263238"></path><path d="M398.64,295.79s3-12.41-6.06-11.94S394.39,294.83,398.64,295.79Z" style="fill:#263238"></path><path d="M391.53,305.72s-3.58-10.78-9.82-8S385.14,306.44,391.53,305.72Z" style="fill:#263238"></path><path d="M402.5,305.8s-1.67-8.7,5.13-9.42S412,303.61,402.5,305.8Z" style="fill:#263238"></path><path d="M399.4,324.07s8.5-8.89,12.27-3.08S405.36,328.88,399.4,324.07Z" style="fill:#263238"></path><path d="M383.1,323.92s-2.81-13.41-9.86-8.56S376.77,325.79,383.1,323.92Z" style="fill:#263238"></path><path d="M378.15,343.84s4.36-14.12-5.66-11.77S370.72,341.09,378.15,343.84Z" style="fill:#263238"></path><path d="M394.1,347.48s7.75-10.78,14.55-8.1S410.91,352.51,394.1,347.48Z" style="fill:#263238"></path><path d="M388.12,370.45s-8.6-15.61-14.65-9.63S378.7,374.11,388.12,370.45Z" style="fill:#263238"></path><path d="M398.64,368.65s-2.93-12.41,4.37-12S409,365,398.64,368.65Z" style="fill:#263238"></path><g style="opacity:0.2;isolation:isolate"><path d="M398.64,295.79s3-12.41-6.06-11.94S394.39,294.83,398.64,295.79Z" style="fill:#fff"></path><path d="M391.53,305.72s-3.58-10.78-9.82-8S385.14,306.44,391.53,305.72Z" style="fill:#fff"></path><path d="M402.5,305.8s-1.67-8.7,5.13-9.42S412,303.61,402.5,305.8Z" style="fill:#fff"></path><path d="M399.4,324.07s8.5-8.89,12.27-3.08S405.36,328.88,399.4,324.07Z" style="fill:#fff"></path><path d="M383.1,323.92s-2.81-13.41-9.86-8.56S376.77,325.79,383.1,323.92Z" style="fill:#fff"></path><path d="M378.15,343.84s4.36-14.12-5.66-11.77S370.72,341.09,378.15,343.84Z" style="fill:#fff"></path><path d="M394.1,347.48s7.75-10.78,14.55-8.1S410.91,352.51,394.1,347.48Z" style="fill:#fff"></path><path d="M388.12,370.45s-8.6-15.61-14.65-9.63S378.7,374.11,388.12,370.45Z" style="fill:#fff"></path><path d="M398.64,368.65s-2.93-12.41,4.37-12S409,365,398.64,368.65Z" style="fill:#fff"></path></g><path d="M396,312.75h-.1a.5.5,0,0,1-.32-.22c0-.07-4-6.42-6.75-7.77a.5.5,0,1,1,.44-.89c2.56,1.27,5.89,6.17,6.87,7.68a31.93,31.93,0,0,0,7.94-9,.5.5,0,0,1,.88.49c-.15.25-3.55,6.24-8.68,9.68A.54.54,0,0,1,396,312.75Z" style="fill:#263238"></path><path d="M389.07,330.23H389a.47.47,0,0,1-.35-.21c-.05-.06-4.94-6.95-10.73-9.77a.49.49,0,0,1-.23-.66.5.5,0,0,1,.67-.24c5.21,2.54,9.57,8,10.78,9.65,7.36-6.25,16.78-6.77,17.19-6.79a.48.48,0,0,1,.52.47.5.5,0,0,1-.47.53c-.1,0-9.85.55-17,6.9A.51.51,0,0,1,389.07,330.23Z" style="fill:#263238"></path><path d="M385.57,352.86a.54.54,0,0,1-.28-.08c-5.83-3.95-10.89-14.52-11.1-15a.5.5,0,0,1,.9-.43c.05.11,5,10.43,10.48,14.38,1.8-1.22,11.3-7.38,18.92-8.14a.5.5,0,1,1,.1,1c-8,.81-18.63,8.09-18.74,8.16A.47.47,0,0,1,385.57,352.86Z" style="fill:#263238"></path><path d="M393.86,375.32a.53.53,0,0,1-.39-.18,24,24,0,0,0-12.62-6.83.5.5,0,0,1,.21-1,25.31,25.31,0,0,1,12.86,6.81c3.72-3,8.08-13.41,8.12-13.51a.49.49,0,0,1,.65-.27.49.49,0,0,1,.27.65c-.19.47-4.79,11.46-8.82,14.22A.49.49,0,0,1,393.86,375.32Z" style="fill:#263238"></path><path d="M395,399.55s3.52-5.59,7.49-6.39,5.68-5.37,7.14-2.62S407.1,402.41,395,399.55Z" style="fill:#263238"></path><path d="M387,404.52h13.65a11,11,0,0,1,11,11V417a0,0,0,0,1,0,0H376a0,0,0,0,1,0,0v-1.45A11,11,0,0,1,387,404.52Z" transform="translate(787.71 821.48) rotate(180)" style="fill:#FF725E"></path><rect x="371.37" y="397.33" width="44.97" height="11.14" rx="4.21" transform="translate(787.71 805.81) rotate(180)" style="fill:#FF725E"></rect><rect x="371.37" y="397.33" width="44.97" height="11.14" rx="4.21" transform="translate(787.71 805.81) rotate(180)" style="fill:#fff;opacity:0.2;isolation:isolate"></rect></g><g id="freepik--Device--inject-27"><path d="M334.16,418.63H191a9.52,9.52,0,0,1-9.62-10.42l21.53-287A11.41,11.41,0,0,1,214,110.74H357.25a9.51,9.51,0,0,1,9.62,10.42l-21.53,287A11.4,11.4,0,0,1,334.16,418.63Z" style="fill:#FF725E"></path><path d="M328.16,418.63H185a9.52,9.52,0,0,1-9.62-10.42l21.53-287A11.41,11.41,0,0,1,208,110.74H351.25a9.51,9.51,0,0,1,9.62,10.42l-21.53,287A11.4,11.4,0,0,1,328.16,418.63Z" style="fill:#FF725E"></path><path d="M328.16,418.63H185a9.52,9.52,0,0,1-9.62-10.42l21.53-287A11.41,11.41,0,0,1,208,110.74H351.25a9.51,9.51,0,0,1,9.62,10.42l-21.53,287A11.4,11.4,0,0,1,328.16,418.63Z" style="fill:#fff;opacity:0.4"></path><path d="M355.38,120.64,333.81,408.2a4.41,4.41,0,0,1-4.38,4H184.2a3.3,3.3,0,0,1-3.36-3.7l21.62-288.22a3.55,3.55,0,0,1,3.37-3.38h36.31a2.33,2.33,0,0,1,2.21,1.64l1.23,3.7a2.32,2.32,0,0,0,2.21,1.62h61.82a2.76,2.76,0,0,0,2.45-1.59l1.79-3.73a2.81,2.81,0,0,1,2.46-1.64h35.78A3.36,3.36,0,0,1,355.38,120.64Z" style="fill:#263238"></path><polygon points="354.37 134.13 334.88 393.98 181.93 393.98 201.42 134.13 354.37 134.13" style="fill:#fff;opacity:0.30000000000000004;isolation:isolate"></polygon><polygon points="218.73 128.02 220.62 128.02 220.81 125.5 218.92 125.5 218.73 128.02" style="fill:#fff;opacity:0.6000000000000001;isolation:isolate"></polygon><polygon points="215.65 128.02 217.54 128.02 217.79 124.66 215.91 124.66 215.65 128.02" style="fill:#fff;opacity:0.6000000000000001;isolation:isolate"></polygon><polygon points="212.57 128.02 214.46 128.02 214.78 123.81 212.89 123.81 212.57 128.02" style="fill:#fff;opacity:0.6000000000000001;isolation:isolate"></polygon><polygon points="209.5 128.02 211.38 128.02 211.76 122.97 209.88 122.97 209.5 128.02" style="fill:#fff;opacity:0.6000000000000001;isolation:isolate"></polygon><polygon points="337.58 127.1 336.46 127.1 336.65 124.58 337.77 124.58 337.58 127.1" style="fill:#fff;opacity:0.6000000000000001;isolation:isolate"></polygon><polygon points="338.28 128.02 347.21 128.02 347.53 123.66 338.61 123.66 338.28 128.02" style="fill:#fff;opacity:0.6000000000000001;isolation:isolate"></polygon><polygon points="348.36 163.94 202.96 163.94 204.83 138.98 350.23 138.98 348.36 163.94" style="fill:#FF725E;isolation:isolate"></polygon><path d="M342.59,147.2a1.22,1.22,0,0,1-1.2,1.12,1,1,0,0,1-1-1.12,1.22,1.22,0,0,1,1.2-1.12A1,1,0,0,1,342.59,147.2Z" style="fill:#fff"></path><path d="M342.27,151.46a1.22,1.22,0,0,1-1.2,1.12,1,1,0,0,1-1-1.12,1.23,1.23,0,0,1,1.2-1.12A1,1,0,0,1,342.27,151.46Z" style="fill:#fff"></path><path d="M342,155.72a1.22,1.22,0,0,1-1.2,1.12,1,1,0,0,1-1-1.12,1.23,1.23,0,0,1,1.2-1.12A1,1,0,0,1,342,155.72Z" style="fill:#fff"></path><polygon points="348.2 166.08 202.8 166.08 185.97 390.48 331.37 390.48 348.2 166.08" style="fill:#FF725E"></polygon><polygon points="348.2 166.08 202.8 166.08 185.97 390.48 331.37 390.48 348.2 166.08" style="fill:#fff;opacity:0.7000000000000001"></polygon><path d="M340.11,223.11H202.4a.5.5,0,0,1-.5-.5.5.5,0,0,1,.5-.5H340.11a.5.5,0,0,1,.5.5A.5.5,0,0,1,340.11,223.11Z" style="fill:#263238"></path><path d="M336,278.41H198.25a.51.51,0,0,1-.5-.5.5.5,0,0,1,.5-.5H336a.5.5,0,0,1,.5.5A.5.5,0,0,1,336,278.41Z" style="fill:#263238"></path><path d="M331.82,333.7H194.11a.5.5,0,0,1-.5-.5.5.5,0,0,1,.5-.5H331.82a.5.5,0,0,1,.5.5A.51.51,0,0,1,331.82,333.7Z" style="fill:#263238"></path><path d="M307.7,156.18h-4.41a2,2,0,0,1-2-2.2l.33-4.41a2.41,2.41,0,0,1,2.35-2.2h4.41a2,2,0,0,1,2,2.2l-.33,4.41A2.4,2.4,0,0,1,307.7,156.18Z" style="fill:#fff"></path><path d="M258.67,405.53h-2.19a2.28,2.28,0,0,1-2.29-2.48l.16-2.2a2.64,2.64,0,0,1,2.58-2.4h2.2a2.27,2.27,0,0,1,2.29,2.48l-.17,2.2A2.63,2.63,0,0,1,258.67,405.53Zm-1.74-6.08a1.61,1.61,0,0,0-1.58,1.48l-.16,2.2a1.27,1.27,0,0,0,1.29,1.4h2.19a1.61,1.61,0,0,0,1.58-1.48l.17-2.2a1.29,1.29,0,0,0-.34-1,1.28,1.28,0,0,0-.95-.4Z" style="fill:#fff"></path><path d="M279.13,117.29a2.31,2.31,0,0,1-2.26,2.1,1.92,1.92,0,0,1-1.94-2.1,2.31,2.31,0,0,1,2.26-2.1A1.92,1.92,0,0,1,279.13,117.29Z" style="opacity:0.6000000000000001;isolation:isolate"></path><path d="M283.38,117.29a1.47,1.47,0,0,1-1.45,1.35,1.23,1.23,0,0,1-1.24-1.35,1.48,1.48,0,0,1,1.45-1.35A1.24,1.24,0,0,1,283.38,117.29Z" style="opacity:0.6000000000000001;isolation:isolate"></path><path d="M283.93,180.4H259.76a1,1,0,0,1-1-1.13h0a1.22,1.22,0,0,1,1.2-1.12H284.1a1,1,0,0,1,1,1.12h0A1.24,1.24,0,0,1,283.93,180.4Z" style="opacity:0.30000000000000004;isolation:isolate"></path><path d="M311.77,187.15H259.26a1,1,0,0,1-1-1.12h0a1.23,1.23,0,0,1,1.2-1.12h52.52a1,1,0,0,1,1,1.12h0A1.22,1.22,0,0,1,311.77,187.15Z" style="opacity:0.30000000000000004;isolation:isolate"></path><path d="M311.34,192.83H258.83a1,1,0,0,1-1-1.12h0a1.23,1.23,0,0,1,1.21-1.12h52.51a1,1,0,0,1,1,1.12h0A1.23,1.23,0,0,1,311.34,192.83Z" style="opacity:0.30000000000000004;isolation:isolate"></path><path d="M253.7,195a24.14,24.14,0,0,1-.67,4.11h0a24.73,24.73,0,0,1-6.74,11.51c-.38.37-.77.72-1.16,1.06a24.74,24.74,0,0,1-7.25,4.34c-.51.21-1,.39-1.55.55l-1.27.35a23.29,23.29,0,0,1-5.61.69,21.59,21.59,0,0,1-6.14-.87,19.66,19.66,0,0,1-3.52-1.38l-.39-.21-.33-.17a20.78,20.78,0,0,1-4.4-3.29A21,21,0,0,1,208.57,195a24.77,24.77,0,0,1,24.26-22.61A20.66,20.66,0,0,1,253.7,195Z" style="fill:#FF725E;isolation:isolate"></path><path d="M242.61,202.16c-.29,1.59-.65,3.18-1.09,4.73-.08.31-.17.63-.27.93a38,38,0,0,1-3.38,8.18c-.51.21-1,.39-1.55.55l-1.27.35a23.29,23.29,0,0,1-5.61.69,21.59,21.59,0,0,1-6.14-.87,19.66,19.66,0,0,1-3.52-1.38l-.39-.21c0-.32,0-.63.08-.94.19-1.86.71-3.75,1-5.38a9.34,9.34,0,0,0,.17-1.82c0-.88-.1-1.94-.22-3.11v0c-.54-5.32-1.78-13-.57-16.87a9.21,9.21,0,0,1,5-6.09s1.19-.07,3-.05h0c1.34,0,3,.05,4.81.23h.14a32.75,32.75,0,0,1,5.84,1.07,3.33,3.33,0,0,1,.45.13h0a9.77,9.77,0,0,1,1.08.36l.71.28a2.09,2.09,0,0,1,.77.58C243.89,185.91,244.15,194,242.61,202.16Z" style="fill:#263238"></path><path d="M242.88,203.66h0a.25.25,0,0,1-.19-.3c1.81-8,1.38-17.68-.88-19.52a1.26,1.26,0,0,0-1.43-.14.25.25,0,0,1-.21-.46,1.77,1.77,0,0,1,2,.22c2.65,2.15,2.74,12.52,1,20A.26.26,0,0,1,242.88,203.66Z" style="fill:#263238"></path><path d="M253,199.09a24.73,24.73,0,0,1-6.74,11.51c-.38.37-.77.72-1.16,1.06l-.19-10S248.81,200.53,253,199.09Z" style="fill:#FF725E"></path><path d="M253,199.09a24.73,24.73,0,0,1-6.74,11.51c-.38.37-.77.72-1.16,1.06l-.19-10S248.81,200.53,253,199.09Z" style="fill:#fff;opacity:0.4"></path><path d="M246.28,210.6c-.38.37-.77.72-1.16,1.06a24.74,24.74,0,0,1-7.25,4.34c-.51.21-1,.39-1.55.55l-1.27.35a23.29,23.29,0,0,1-5.61.69,21.59,21.59,0,0,1-6.14-.87,19.66,19.66,0,0,1-3.52-1.38l-.39-.21-.33-.17a19.28,19.28,0,0,1-2.23-1.44c-.23-1-.5-1.89-.79-2.76,0,0,1.25-.64,3.68-1.64.23-.11.47-.2.73-.31,1-.4,2.14-.84,3.46-1.31.34-.14.68-.26,1-.38.72-.26,1.48-.52,2.29-.79,1.69-.56,3.57-1.13,5.63-1.73l.61-.17c.44-.12.87-.25,1.32-.36,2.39-.65,5-1.3,7.81-1.91l.56-.13,1.76-.36A38.56,38.56,0,0,1,246.28,210.6Z" style="fill:#FF725E"></path><g style="opacity:0.7000000000000001;isolation:isolate"><path d="M246.28,210.6c-.38.37-.77.72-1.16,1.06a24.74,24.74,0,0,1-7.25,4.34c-.51.21-1,.39-1.55.55l-1.27.35a23.29,23.29,0,0,1-5.61.69,21.59,21.59,0,0,1-6.14-.87,19.66,19.66,0,0,1-3.52-1.38l-.39-.21-.33-.17a19.28,19.28,0,0,1-2.23-1.44c-.23-1-.5-1.89-.79-2.76,0,0,1.25-.64,3.68-1.64.23-.11.47-.2.73-.31,1-.4,2.14-.84,3.46-1.31.34-.14.68-.26,1-.38.72-.26,1.48-.52,2.29-.79,1.69-.56,3.57-1.13,5.63-1.73l.61-.17c.44-.12.87-.25,1.32-.36,2.39-.65,5-1.3,7.81-1.91l.56-.13,1.76-.36A38.56,38.56,0,0,1,246.28,210.6Z" style="fill:#fff"></path></g><path d="M219.06,215a20.78,20.78,0,0,1-4.4-3.29,12.26,12.26,0,0,1,1.38-.91A5.1,5.1,0,0,1,219.06,215Z" style="fill:#FF725E"></path><path d="M219.06,215a20.78,20.78,0,0,1-4.4-3.29,12.26,12.26,0,0,1,1.38-.91A5.1,5.1,0,0,1,219.06,215Z" style="fill:#fff;opacity:0.4"></path><path d="M242.26,208l-1-.18-3.74-.65-1.19,9.38-1.27.35a16.92,16.92,0,0,0-8.54-6.7l-2.58,4.2s-2.24-4.18,1-7.28a8.9,8.9,0,0,1,2.75-1.72,14.6,14.6,0,0,1,2.2-.71,19.22,19.22,0,0,1,2-.41h0a12.12,12.12,0,0,1,1.51-.18c.48,0,.92,0,1.35,0a8.64,8.64,0,0,1,6.72,2.82A5.14,5.14,0,0,1,242.26,208Z" style="fill:#FF725E"></path><path d="M242.26,208l-1-.18-3.74-.65-1.19,9.38-1.27.35a16.92,16.92,0,0,0-8.54-6.7l-2.58,4.2s-2.24-4.18,1-7.28a8.9,8.9,0,0,1,2.75-1.72,14.6,14.6,0,0,1,2.2-.71,19.22,19.22,0,0,1,2-.41h0a12.12,12.12,0,0,1,1.51-.18c.48,0,.92,0,1.35,0a8.64,8.64,0,0,1,6.72,2.82A5.14,5.14,0,0,1,242.26,208Z" style="fill:#fff;opacity:0.4"></path><path d="M235,213a56.73,56.73,0,0,1-8.88-5.34c2.42-2.14,2.25-5.3,1.82-7.27a10.26,10.26,0,0,0-.55-1.82l6.58,1.26a20,20,0,0,0-.47,2.81,8.58,8.58,0,0,0,0,2.07c.31,2,1.44,2,1.44,2C236,209,235,213,235,213Z" style="fill:#e4897b"></path><path d="M233.49,202.66a8.58,8.58,0,0,0,0,2.07c-2.62-.35-4.47-2.47-5.59-4.32a10.26,10.26,0,0,0-.55-1.82l6.58,1.26A20,20,0,0,0,233.49,202.66Z" style="opacity:0.2;isolation:isolate"></path><path d="M233.79,181c7.19,0,7.53,3.48,7.5,9.48,0,7.49-2.12,12.81-9.26,11.2C222.34,199.5,224.15,181,233.79,181Z" style="fill:#e4897b"></path><path d="M237.56,190.17a11.2,11.2,0,0,0,1.5,2.41,1.74,1.74,0,0,1-1.58.66Z" style="fill:#de5753"></path><path d="M234,189.68c0,.48-.3.87-.62.88s-.56-.38-.53-.85.3-.88.62-.88S234.07,189.2,234,189.68Z" style="fill:#263238"></path><path d="M233.38,188.85l1.06-.43S233.87,189.31,233.38,188.85Z" style="fill:#263238"></path><path d="M240,189.46c0,.47-.31.87-.63.87s-.55-.37-.53-.85.31-.87.63-.88S240,189,240,189.46Z" style="fill:#263238"></path><path d="M239.32,188.63l1.06-.43S239.82,189.09,239.32,188.63Z" style="fill:#263238"></path><path d="M231.71,186.89a.36.36,0,0,1-.27-.59,3.53,3.53,0,0,1,2.9-1,.36.36,0,0,1,.3.4.34.34,0,0,1-.39.3,2.88,2.88,0,0,0-2.28.76A.35.35,0,0,1,231.71,186.89Z" style="fill:#263238"></path><path d="M240.81,186.26a.36.36,0,0,1-.2-.06,2.29,2.29,0,0,0-2-.44.35.35,0,0,1-.45-.22.36.36,0,0,1,.21-.45,3,3,0,0,1,2.6.53.35.35,0,0,1-.2.64Z" style="fill:#263238"></path><path d="M226.79,191.16s3.08-4.77,3-8.46a7.18,7.18,0,0,1,9.62,0s2,4,1.92,7.07c0,0,1.93-10.39-8-10.65s-11.05,14.38-6.23,18.75C227,197.82,224.88,194.15,226.79,191.16Z" style="fill:#263238"></path><path d="M227.64,192.39a2.34,2.34,0,0,0-2.56-2.34c-1.82.2-3,3.9,1.45,4.8C227.16,195,227.57,194.35,227.64,192.39Z" style="fill:#e4897b"></path><path d="M235.78,196.81a3,3,0,0,1-3-1.92.35.35,0,1,1,.66-.26,2.51,2.51,0,0,0,2.91,1.41.35.35,0,0,1,.42.27.34.34,0,0,1-.26.42A3.34,3.34,0,0,1,235.78,196.81Z" style="fill:#263238"></path><path d="M229.74,182.7s6.86-3,11,.94c0,0,2.11-5.13-3.64-6.88s-12.18,4.15-12.18,4.15Z" style="fill:#263238"></path><path d="M222.59,211.37c-1.11,2.83-.21,4.48.71,5.35a19.66,19.66,0,0,1-3.52-1.38,4.3,4.3,0,0,1-.31-1.15,2,2,0,0,1-.06-.34,20.82,20.82,0,0,1,.31-4.73c.2-1.55.46-3.31.68-5.24v0a62.17,62.17,0,0,0,.49-8.25c-.09-6.14,1.77-10.93,5.07-12.48h0a5.72,5.72,0,0,1,3.37-.48l.41.05a14.87,14.87,0,0,0-3.76,7.44,17.17,17.17,0,0,0-.36,2.52h0c0,.49-.06,1-.06,1.49v.42c0,.45,0,.88,0,1.3h0a45.11,45.11,0,0,1-1.64,11.62C223.53,208.83,223.09,210.1,222.59,211.37Z" style="fill:#263238"></path><path d="M337.06,216.08h-28a2.28,2.28,0,0,1-2.31-2.49l.57-7.54a2.73,2.73,0,0,1,2.68-2.5h28a2.29,2.29,0,0,1,2.31,2.5l-.57,7.54A2.72,2.72,0,0,1,337.06,216.08Z" style="fill:#FF725E;opacity:0.30000000000000004;isolation:isolate"></path><g style="opacity:0.5;isolation:isolate"><path d="M315.05,210.68h-2.7L311.7,212H311l2.68-5.09h.72l1.92,5.09h-.76Zm-.21-.58-.91-2.5-1.28,2.5Z" style="fill:#FF725E"></path><path d="M320.91,206.56l-.4,5.39h-.67l0-.61a1.76,1.76,0,0,1-1.41.65,1.72,1.72,0,0,1-1.8-2,2,2,0,0,1,2.09-2,1.54,1.54,0,0,1,1.3.62l.15-2.12ZM320,210a1.16,1.16,0,0,0-1.19-1.35,1.39,1.39,0,0,0-1.4,1.35,1.17,1.17,0,0,0,1.2,1.36A1.39,1.39,0,0,0,320,210Z" style="fill:#FF725E"></path><path d="M325.85,206.56l-.41,5.39h-.66l0-.61a1.76,1.76,0,0,1-1.42.65,1.71,1.71,0,0,1-1.79-2,2,2,0,0,1,2.09-2,1.51,1.51,0,0,1,1.29.62l.16-2.12Zm-1,3.46a1.16,1.16,0,0,0-1.19-1.35,1.39,1.39,0,0,0-1.4,1.35,1.17,1.17,0,0,0,1.2,1.36A1.39,1.39,0,0,0,324.9,210Z" style="fill:#FF725E"></path><path d="M330.34,210.26h-3.11a1.18,1.18,0,0,0,1.3,1.12,1.57,1.57,0,0,0,1.15-.46l.35.45a2.11,2.11,0,0,1-1.56.62,1.77,1.77,0,0,1-1.92-2,2.05,2.05,0,0,1,2.07-2,1.7,1.7,0,0,1,1.75,2A2.11,2.11,0,0,1,330.34,210.26Zm-3.08-.51h2.47a1.1,1.1,0,0,0-1.15-1.1A1.32,1.32,0,0,0,327.26,209.75Z" style="fill:#FF725E"></path><path d="M335.22,206.56l-.41,5.39h-.66l0-.61a1.76,1.76,0,0,1-1.42.65,1.71,1.71,0,0,1-1.79-2,2,2,0,0,1,2.09-2,1.51,1.51,0,0,1,1.29.62l.16-2.12Zm-1,3.46a1.16,1.16,0,0,0-1.19-1.35,1.39,1.39,0,0,0-1.4,1.35,1.17,1.17,0,0,0,1.2,1.36A1.39,1.39,0,0,0,334.27,210Z" style="fill:#FF725E"></path></g><path d="M214.34,149.45l-.13,1.77h2.54l0,.63h-2.55L214,153.9h-.73l.38-5.08h3.59l-.05.63Z" style="fill:#fff"></path><path d="M221.27,153.9l-1-1.56-.32,0h-1.26l-.11,1.54h-.73l.38-5.08h2c1.32,0,2.07.67,2,1.77A1.75,1.75,0,0,1,221,152.2l1.07,1.7Zm.23-3.31c.05-.72-.4-1.14-1.33-1.14h-1.23l-.17,2.29H220C220.93,151.74,221.45,151.32,221.5,150.59Z" style="fill:#fff"></path><path d="M223.53,148.82h.72l-.38,5.08h-.72Z" style="fill:#fff"></path><path d="M229.12,153.27l-.05.63h-3.68l.38-5.08h3.58l0,.63h-2.85l-.12,1.56h2.55l0,.62h-2.54l-.13,1.64Z" style="fill:#fff"></path><path d="M235,148.82l-.39,5.08H234l-2.76-3.79L231,153.9h-.73l.38-5.08h.6l2.76,3.79.28-3.79Z" style="fill:#fff"></path><path d="M236.5,148.82h2.14a2.31,2.31,0,0,1,2.55,2.54,2.74,2.74,0,0,1-2.93,2.54h-2.14Zm1.76,4.45a2,2,0,0,0,2.2-1.91,1.71,1.71,0,0,0-1.91-1.91h-1.37l-.29,3.82Z" style="fill:#fff"></path><path d="M243.63,153.32l.31-.56a2.44,2.44,0,0,0,1.63.58c.88,0,1.28-.34,1.31-.78.1-1.24-3-.46-2.89-2.35,0-.78.71-1.45,2-1.45a2.78,2.78,0,0,1,1.59.45l-.28.58a2.48,2.48,0,0,0-1.36-.41c-.86,0-1.26.36-1.29.81-.1,1.24,3,.46,2.9,2.33-.06.77-.74,1.44-2.08,1.44A2.81,2.81,0,0,1,243.63,153.32Z" style="fill:#fff"></path><path d="M248.67,151.71l.21-2.89h.73l-.22,2.86c-.08,1.13.4,1.64,1.31,1.64s1.47-.51,1.56-1.64l.21-2.86h.7l-.21,2.89a2.18,2.18,0,0,1-2.32,2.25A1.84,1.84,0,0,1,248.67,151.71Z" style="fill:#fff"></path><path d="M258,151.33h.7l-.15,2a3.25,3.25,0,0,1-2,.64,2.36,2.36,0,0,1-2.51-2.6,2.82,2.82,0,0,1,2.91-2.6,2.33,2.33,0,0,1,1.89.79l-.48.45a1.85,1.85,0,0,0-1.43-.59,2.09,2.09,0,0,0-2.16,2,1.77,1.77,0,0,0,1.86,2,2.31,2.31,0,0,0,1.22-.33Z" style="fill:#fff"></path><path d="M263.57,151.33h.7l-.15,2a3.25,3.25,0,0,1-2,.64,2.36,2.36,0,0,1-2.51-2.6,2.82,2.82,0,0,1,2.91-2.6,2.33,2.33,0,0,1,1.89.79L264,150a1.85,1.85,0,0,0-1.43-.59,2.11,2.11,0,0,0-2.17,2,1.78,1.78,0,0,0,1.87,2,2.31,2.31,0,0,0,1.22-.33Z" style="fill:#fff"></path><path d="M269.18,153.27l-.05.63h-3.68l.38-5.08h3.58l0,.63h-2.86l-.12,1.56h2.55l-.05.62h-2.54l-.13,1.64Z" style="fill:#fff"></path><path d="M269.88,153.32l.31-.56a2.46,2.46,0,0,0,1.63.58c.88,0,1.28-.34,1.32-.78.09-1.24-3-.46-2.9-2.35.06-.78.72-1.45,2.05-1.45a2.82,2.82,0,0,1,1.6.45l-.28.58a2.54,2.54,0,0,0-1.37-.41c-.86,0-1.25.36-1.29.81-.09,1.24,3,.46,2.9,2.33-.06.77-.73,1.44-2.07,1.44A2.81,2.81,0,0,1,269.88,153.32Z" style="fill:#fff"></path><path d="M276.07,149.45h-1.74l.05-.63h4.19l0,.63h-1.74l-.34,4.45h-.72Z" style="fill:#fff"></path><path d="M279.36,148.82h.72l-.38,5.08H279Z" style="fill:#fff"></path><path d="M281,151.36a2.82,2.82,0,0,1,2.9-2.6,2.36,2.36,0,0,1,2.49,2.6,2.81,2.81,0,0,1-2.88,2.6A2.37,2.37,0,0,1,281,151.36Zm4.67,0a1.75,1.75,0,0,0-1.82-2,2.1,2.1,0,0,0-2.13,2,1.76,1.76,0,0,0,1.84,2A2.09,2.09,0,0,0,285.67,151.36Z" style="fill:#fff"></path><path d="M292.05,148.82l-.38,5.08h-.6l-2.76-3.79L288,153.9h-.73l.39-5.08h.59l2.76,3.79.28-3.79Z" style="fill:#fff"></path><path d="M292.76,153.32l.31-.56a2.46,2.46,0,0,0,1.63.58c.88,0,1.28-.34,1.32-.78.09-1.24-3-.46-2.9-2.35.06-.78.72-1.45,2.05-1.45a2.82,2.82,0,0,1,1.6.45l-.28.58a2.54,2.54,0,0,0-1.37-.41c-.86,0-1.25.36-1.29.81-.09,1.24,3,.46,2.9,2.33-.06.77-.73,1.44-2.07,1.44A2.81,2.81,0,0,1,292.76,153.32Z" style="fill:#fff"></path><path d="M279.81,235.3H255.64a1,1,0,0,1-1-1.12h0a1.22,1.22,0,0,1,1.2-1.12H280a1,1,0,0,1,1,1.12h0A1.23,1.23,0,0,1,279.81,235.3Z" style="opacity:0.30000000000000004;isolation:isolate"></path><path d="M307.65,242.06H255.14a1,1,0,0,1-1-1.12h0a1.24,1.24,0,0,1,1.21-1.13h52.51a1,1,0,0,1,1,1.13h0A1.23,1.23,0,0,1,307.65,242.06Z" style="opacity:0.30000000000000004;isolation:isolate"></path><path d="M307.23,247.74H254.71a1,1,0,0,1-1-1.12h0a1.24,1.24,0,0,1,1.21-1.13h52.51a1,1,0,0,1,1,1.13h0A1.23,1.23,0,0,1,307.23,247.74Z" style="opacity:0.30000000000000004;isolation:isolate"></path><path d="M249.58,249.89a24,24,0,0,1-4.56,12.3,4.54,4.54,0,0,1-.36.5c-.4.53-.83,1.05-1.27,1.54-.2.23-.4.44-.62.66s-.59.61-.9.9l-.79.71c-.14.13-.29.25-.44.37a24.47,24.47,0,0,1-4.95,3.19,23.49,23.49,0,0,1-10.37,2.43,21.53,21.53,0,0,1-5.5-.69,20.17,20.17,0,0,1-6.27-2.79,3.64,3.64,0,0,1-.35-.24,19.36,19.36,0,0,1-1.9-1.48l-.06-.06a21,21,0,0,1-1.92-2c-.08-.08-.15-.17-.23-.26a21.14,21.14,0,0,1-4.64-15.11,24.77,24.77,0,0,1,24.26-22.62A20.67,20.67,0,0,1,249.58,249.89Z" style="fill:#FF725E;isolation:isolate"></path><path d="M332.94,271H286.07a2.29,2.29,0,0,1-2.3-2.5l.56-7.54a2.75,2.75,0,0,1,2.68-2.49h46.87a2.28,2.28,0,0,1,2.31,2.49l-.57,7.54A2.73,2.73,0,0,1,332.94,271Z" style="fill:#FF725E;isolation:isolate"></path><path d="M291.09,265.58h-2.7l-.65,1.27H287l2.68-5.08h.72l1.92,5.08h-.76Zm-.21-.58-.91-2.49L288.69,265Z" style="fill:#fff"></path><path d="M297,261.46l-.4,5.39h-.67l.05-.61a1.77,1.77,0,0,1-1.42.66,1.72,1.72,0,0,1-1.8-2,2,2,0,0,1,2.09-2,1.5,1.5,0,0,1,1.3.62l.16-2.13Zm-.95,3.47a1.15,1.15,0,0,0-1.19-1.35,1.38,1.38,0,0,0-1.39,1.35,1.16,1.16,0,0,0,1.19,1.36A1.39,1.39,0,0,0,296,264.93Z" style="fill:#fff"></path><path d="M301.89,261.46l-.4,5.39h-.67l0-.61a1.73,1.73,0,0,1-1.41.66,1.72,1.72,0,0,1-1.8-2,2,2,0,0,1,2.09-2,1.51,1.51,0,0,1,1.3.62l.15-2.13Zm-.95,3.47a1.16,1.16,0,0,0-1.19-1.35,1.39,1.39,0,0,0-1.4,1.35,1.17,1.17,0,0,0,1.2,1.36A1.39,1.39,0,0,0,300.94,264.93Z" style="fill:#fff"></path><path d="M305.84,262.67l0,.33h1.12l-.05.58h-1.1l-.25,3.27h-.69l.24-3.27h-.65l.05-.58h.65l0-.34a1.27,1.27,0,0,1,1.36-1.24,1.18,1.18,0,0,1,.77.23l-.25.53a.84.84,0,0,0-.52-.18C306.1,262,305.88,262.23,305.84,262.67Z" style="fill:#fff"></path><path d="M310.24,263l-.05.67H310a1.25,1.25,0,0,0-1.31,1.3l-.14,1.91h-.7l.29-3.85h.67l0,.65A1.59,1.59,0,0,1,310.24,263Z" style="fill:#fff"></path><path d="M311.06,261.81a.49.49,0,0,1,.5-.45.41.41,0,0,1,.44.44.5.5,0,0,1-.51.46A.4.4,0,0,1,311.06,261.81Zm0,1.19h.7l-.29,3.85h-.7Z" style="fill:#fff"></path><path d="M316.4,265.16h-3.11a1.18,1.18,0,0,0,1.31,1.13,1.57,1.57,0,0,0,1.14-.47l.35.45a2.06,2.06,0,0,1-1.56.63,1.77,1.77,0,0,1-1.92-2,2.06,2.06,0,0,1,2.07-2,1.71,1.71,0,0,1,1.76,2A1.55,1.55,0,0,1,316.4,265.16Zm-3.07-.5h2.46a1.09,1.09,0,0,0-1.15-1.1A1.31,1.31,0,0,0,313.33,264.66Z" style="fill:#fff"></path><path d="M321.06,264.64l-.16,2.21h-.7l.16-2.13c.06-.76-.29-1.13-.95-1.13a1.25,1.25,0,0,0-1.31,1.28l-.15,2h-.7l.29-3.85h.67l0,.59a1.78,1.78,0,0,1,1.43-.62A1.37,1.37,0,0,1,321.06,264.64Z" style="fill:#fff"></path><path d="M326.23,261.46l-.4,5.39h-.67l0-.61a1.77,1.77,0,0,1-1.42.66,1.73,1.73,0,0,1-1.8-2,2,2,0,0,1,2.09-2,1.5,1.5,0,0,1,1.3.62l.16-2.13Zm-1,3.47a1.15,1.15,0,0,0-1.18-1.35,1.39,1.39,0,0,0-1.4,1.35,1.16,1.16,0,0,0,1.19,1.36A1.39,1.39,0,0,0,325.28,264.93Z" style="fill:#fff"></path><path d="M332.33,264.6H331l-.09,1.3h-.61l.09-1.3h-1.31l0-.57h1.32l.1-1.31h.6l-.09,1.31h1.32Z" style="fill:#fff"></path><path d="M241.5,261.24h0a27.44,27.44,0,0,0-5-5,35.9,35.9,0,0,1,4.19,5c.26.36.51.73.74,1.12.1.16.21.32.3.49a21,21,0,0,1,1.08,2.05c-.29.32-.59.61-.9.9l-.79.71c-.14.13-.29.25-.44.37a24.47,24.47,0,0,1-4.95,3.19,23.49,23.49,0,0,1-10.37,2.43,21.53,21.53,0,0,1-5.5-.69,20.17,20.17,0,0,1-6.27-2.79,1.29,1.29,0,0,0,0-.19c.41-1.76.81-3.66,1.11-5.61.05-.29.09-.57.13-.85a46.21,46.21,0,0,0,.51-9.24c-.71-11,1.4-16.91,4.71-17.81l.06,0c1.71-.46,3.21-.81,4.54-1h0a25.89,25.89,0,0,1,3-.36h.1c5.76-.26,7,2.49,9.06,5.79a6.05,6.05,0,0,1,.48,1c1.4,3.82-.74,9.54.74,13.21a4.56,4.56,0,0,0,1.35,1.92A20.19,20.19,0,0,1,244.3,262c.15.28.27.53.36.73-.4.53-.83,1.05-1.27,1.54A20,20,0,0,0,241.5,261.24Z" style="fill:#263238"></path><path d="M245.8,259.54a.24.24,0,0,1-.22-.14c-.84-1.89-2.8-2.76-4.69-3.59a14.59,14.59,0,0,1-2.62-1.37c-2.22-1.6-1.43-7.89-1.39-8.16a.24.24,0,1,1,.48.07c0,.06-.79,6.26,1.2,7.7a14.2,14.2,0,0,0,2.53,1.31c1.88.83,4,1.78,4.93,3.84a.24.24,0,0,1-.12.32Z" style="fill:#263238"></path><path d="M245,262.19a4.54,4.54,0,0,1-.36.5c-.4.53-.83,1.05-1.27,1.54-.2.23-.4.44-.62.66s-.59.61-.9.9l-.79.71.4-5.27h0a22.68,22.68,0,0,1,2.8.72C244.54,262,244.78,262.11,245,262.19Z" style="fill:#fff"></path><path d="M240.64,266.87a24.47,24.47,0,0,1-4.95,3.19,23.49,23.49,0,0,1-10.37,2.43,21.53,21.53,0,0,1-5.5-.69,20.17,20.17,0,0,1-6.27-2.79,3.64,3.64,0,0,1-.35-.24,19.36,19.36,0,0,1-1.9-1.48c-.24-.93-.5-1.91-.77-2.92.66-.21,1.33-.41,2-.59l.1,0c.64-.18,1.28-.34,1.92-.5l.15,0,1.3-.31c.69-.16,1.37-.3,2.05-.43s1.37-.26,2.06-.37l1.26-.22c.92-.14,1.83-.27,2.75-.38s1.59-.18,2.38-.25l1.71-.13,2.16-.1h2c1.52,0,3,.1,4.25.19l1.57.11.83.07.79.07s.72.18.82,4.86C240.64,266.51,240.63,266.69,240.64,266.87Z" style="fill:#263238"></path><path d="M240.63,266.34a26.09,26.09,0,0,1-5.08,1.79,55.66,55.66,0,0,1-16.48,1.18c-2-.11-3.83-.29-5.48-.49l-.39-.05a19.36,19.36,0,0,1-1.9-1.48c-.24-.93-.5-1.91-.77-2.92.66-.21,1.33-.41,2-.59l.1,0c.64-.18,1.28-.34,1.92-.5l.15,0,1.3-.31c.69-.16,1.37-.3,2.05-.43s1.37-.26,2.06-.37l1.26-.22c.92-.14,1.83-.27,2.75-.38s1.59-.18,2.38-.25l1.71-.13,2.16-.1h2c1.52,0,3,.1,4.25.19l1.57.11.83.07.79.07S240.53,261.66,240.63,266.34Z" style="fill:#eec1bb"></path><path d="M219.82,271.8a20.17,20.17,0,0,1-6.27-2.79,3.64,3.64,0,0,1-.35-.24,19.36,19.36,0,0,1-1.9-1.48l-.06-.06a21,21,0,0,1-1.92-2c0-.13,0-.26,0-.4l5.55-2.5.63-.29s.21.3.54.83a34.94,34.94,0,0,1,3.07,6.41A25,25,0,0,1,219.82,271.8Z" style="fill:#fff"></path><path d="M241.87,265.79l-.79.71c-.14.13-.29.25-.44.37a24.47,24.47,0,0,1-4.95,3.19c0-.65-.09-1.31-.14-1.93a45.24,45.24,0,0,0-1.44-7.43l7.37.53c.08.48.15,1,.21,1.61C241.77,263.73,241.84,264.72,241.87,265.79Z" style="fill:#fff"></path><path d="M211.24,267.23a21,21,0,0,1-1.92-2c-.08-.08-.15-.17-.23-.26l.19-.14A5.93,5.93,0,0,1,211.24,267.23Z" style="fill:#fff"></path><path d="M227.45,266.17c-5.58-.72-7.1-3.14-7.1-3.14,2.47-2.17,2.29-5.38,1.86-7.38a11,11,0,0,0-.56-1.85l6.69,1.27a21,21,0,0,0-.48,2.86,8.91,8.91,0,0,0,0,2.11c.31,2,1.47,2.06,1.47,2.06C230.38,264.33,227.45,266.17,227.45,266.17Z" style="fill:#eec1bb"></path><path d="M227.86,257.93a8.91,8.91,0,0,0,0,2.11c-2.66-.36-4.54-2.52-5.68-4.39a11,11,0,0,0-.56-1.85l6.69,1.27A21,21,0,0,0,227.86,257.93Z" style="opacity:0.2;isolation:isolate"></path><path d="M228.37,236.25c5.88.22,7.42,3.46,7.17,9.56-.32,7.64-2.6,13-9.78,11.08C216,254.31,218.6,235.89,228.37,236.25Z" style="fill:#eec1bb"></path><path d="M231.77,245.34a11.15,11.15,0,0,0,1.44,2.52,1.78,1.78,0,0,1-1.63.61Z" style="fill:#d4827d"></path><path d="M228.22,244.72c0,.49-.33.88-.66.88s-.55-.41-.5-.89.34-.88.66-.87S228.27,244.24,228.22,244.72Z" style="fill:#263238"></path><path d="M227.58,243.86l1.09-.4S228.07,244.34,227.58,243.86Z" style="fill:#263238"></path><path d="M234.26,244.71c0,.48-.34.87-.67.87s-.55-.4-.5-.89.34-.88.66-.87S234.3,244.22,234.26,244.71Z" style="fill:#263238"></path><path d="M233.61,243.84l1.09-.4S234.1,244.32,233.61,243.84Z" style="fill:#263238"></path><path d="M226,241.79a.35.35,0,0,1-.26-.59,3.59,3.59,0,0,1,3-.91.35.35,0,0,1,.29.41.35.35,0,0,1-.41.29,2.89,2.89,0,0,0-2.33.69A.33.33,0,0,1,226,241.79Z" style="fill:#263238"></path><path d="M235.22,241.48a.37.37,0,0,1-.22-.08,2.32,2.32,0,0,0-2-.51.35.35,0,0,1-.44-.24.35.35,0,0,1,.23-.44,3,3,0,0,1,2.61.63.35.35,0,0,1,.07.5A.37.37,0,0,1,235.22,241.48Z" style="fill:#263238"></path><path d="M230.46,250.76a15.77,15.77,0,0,0-.91,2l-.38,0c-1.69-.24-2.35-.92-2.58-1.59a2.24,2.24,0,0,1-.05-1.05,2.33,2.33,0,0,1,.18-.59,7.55,7.55,0,0,0,3.17,1.16C230.24,250.74,230.46,250.76,230.46,250.76Z" style="fill:#263238"></path><path d="M229.89,250.67l-.29.59c-1.59-.23-2.66-.6-3.06-1.16a2.33,2.33,0,0,1,.18-.59A7.55,7.55,0,0,0,229.89,250.67Z" style="fill:#fff"></path><path d="M229.17,252.74c-1.69-.24-2.35-.92-2.58-1.59a5,5,0,0,1,1.8.64A1.82,1.82,0,0,1,229.17,252.74Z" style="fill:#de5753"></path><path d="M220.82,246s3.3-4.75,3.3-8.51c0,0,12.19-4.35,11.44,7.56,0,0,2.32-10.52-7.77-11.13s-11.71,14.25-7,18.88C220.81,252.77,218.78,249,220.82,246Z" style="fill:#263238"></path><path d="M221.64,247.26a2.37,2.37,0,0,0-2.51-2.47c-1.84.13-3.13,3.86,1.3,4.93C221.06,249.87,221.5,249.25,221.64,247.26Z" style="fill:#eec1bb"></path><path d="M225.35,232.35c3.25-.89,11.77-1,13.11,7.81l-1.22.59a17.56,17.56,0,0,0-6.24-1.89,13.49,13.49,0,0,0-1.47-2.37,13.4,13.4,0,0,1-.17,2.25s-5.61.81-8.27,3.08c-4.16,3.55-4.57,5.8-4.57,5.8S214.75,235.24,225.35,232.35Z" style="fill:#263238"></path><path d="M239.31,240.11a.25.25,0,0,1-.23-.19,9.3,9.3,0,0,0-4.46-6.22c-4.22-2.29-9.66-.49-9.72-.47a.26.26,0,0,1-.31-.15.25.25,0,0,1,.16-.31c.23-.08,5.69-1.89,10.1.5a9.71,9.71,0,0,1,4.7,6.53.25.25,0,0,1-.17.3Z" style="fill:#263238"></path><path d="M275.63,291.16H251.46a1,1,0,0,1-1-1.13h0a1.22,1.22,0,0,1,1.2-1.12h24.17a1,1,0,0,1,1,1.12h0A1.24,1.24,0,0,1,275.63,291.16Z" style="opacity:0.30000000000000004;isolation:isolate"></path><path d="M303.46,297.91H251a1,1,0,0,1-1-1.12h0a1.24,1.24,0,0,1,1.21-1.13h52.51a1,1,0,0,1,1,1.13h0A1.23,1.23,0,0,1,303.46,297.91Z" style="opacity:0.30000000000000004;isolation:isolate"></path><path d="M303,303.59H250.52a1,1,0,0,1-1-1.12h0a1.23,1.23,0,0,1,1.2-1.13H303.2a1,1,0,0,1,1,1.13h0A1.22,1.22,0,0,1,303,303.59Z" style="opacity:0.30000000000000004;isolation:isolate"></path><path d="M245.39,305.74a2.11,2.11,0,0,1,0,.25,23.44,23.44,0,0,1-1.16,5.54h0a23.46,23.46,0,0,1-2,4.5,24.57,24.57,0,0,1-2.82,3.89c-.29.34-.6.66-.9,1-.49.49-1,1-1.53,1.43l-.05,0a24,24,0,0,1-3.27,2.38,23.6,23.6,0,0,1-4.76,2.26h0a24.22,24.22,0,0,1-2.35.68h0a23,23,0,0,1-5.32.63c-.35,0-.69,0-1,0a22.61,22.61,0,0,1-2.89-.31,21.43,21.43,0,0,1-3-.78,16.89,16.89,0,0,1-1.83-.71,16.54,16.54,0,0,1-2.13-1.11,14.26,14.26,0,0,1-1.33-.85,20.8,20.8,0,0,1-8.65-18.82,24.76,24.76,0,0,1,24.26-22.61A20.66,20.66,0,0,1,245.39,305.74Z" style="fill:#FF725E;isolation:isolate"></path><path d="M328.76,326.84H281.88a2.28,2.28,0,0,1-2.3-2.49l.57-7.54a2.73,2.73,0,0,1,2.67-2.5h46.87a2.29,2.29,0,0,1,2.31,2.5l-.57,7.54A2.72,2.72,0,0,1,328.76,326.84Z" style="fill:#FF725E;isolation:isolate"></path><path d="M286.9,321.44h-2.7l-.65,1.27h-.75l2.68-5.09h.72l1.92,5.09h-.76Zm-.21-.59-.91-2.49-1.28,2.49Z" style="fill:#fff"></path><path d="M292.76,317.32l-.4,5.39h-.67l.05-.61a1.79,1.79,0,0,1-1.42.65,1.73,1.73,0,0,1-1.8-2,2,2,0,0,1,2.09-2,1.5,1.5,0,0,1,1.3.62l.16-2.12Zm-.95,3.46a1.15,1.15,0,0,0-1.18-1.35,1.39,1.39,0,0,0-1.4,1.35,1.17,1.17,0,0,0,1.19,1.36A1.39,1.39,0,0,0,291.81,320.78Z" style="fill:#fff"></path><path d="M297.7,317.32l-.4,5.39h-.67l.05-.61a1.79,1.79,0,0,1-1.42.65,1.72,1.72,0,0,1-1.8-2,2,2,0,0,1,2.09-2,1.51,1.51,0,0,1,1.3.62l.16-2.12Zm-.95,3.46a1.16,1.16,0,0,0-1.19-1.35,1.39,1.39,0,0,0-1.4,1.35,1.17,1.17,0,0,0,1.2,1.36A1.39,1.39,0,0,0,296.75,320.78Z" style="fill:#fff"></path><path d="M301.65,318.52l0,.34h1.12l-.05.57h-1.1l-.24,3.28h-.7l.25-3.28h-.66l.05-.57H301l0-.34a1.27,1.27,0,0,1,1.37-1.25,1.23,1.23,0,0,1,.76.23l-.25.53a.84.84,0,0,0-.52-.18A.64.64,0,0,0,301.65,318.52Z" style="fill:#fff"></path><path d="M306.05,318.82l-.05.68h-.16a1.26,1.26,0,0,0-1.31,1.3l-.14,1.92h-.7l.29-3.85h.67l0,.64A1.59,1.59,0,0,1,306.05,318.82Z" style="fill:#fff"></path><path d="M306.87,317.67a.49.49,0,0,1,.5-.46.41.41,0,0,1,.44.44.51.51,0,0,1-.51.47A.41.41,0,0,1,306.87,317.67Zm0,1.19h.7l-.29,3.85h-.7Z" style="fill:#fff"></path><path d="M312.22,321H309.1a1.2,1.2,0,0,0,1.31,1.13,1.52,1.52,0,0,0,1.14-.47l.35.46a2.09,2.09,0,0,1-1.56.62,1.77,1.77,0,0,1-1.92-2,2.07,2.07,0,0,1,2.08-2,1.71,1.71,0,0,1,1.75,2Zm-3.08-.5h2.46a1.09,1.09,0,0,0-1.15-1.1A1.31,1.31,0,0,0,309.14,320.51Z" style="fill:#fff"></path><path d="M316.88,320.49l-.17,2.22H316l.16-2.14c.06-.75-.29-1.12-.95-1.12a1.24,1.24,0,0,0-1.31,1.27l-.15,2h-.7l.29-3.85H314l0,.58a1.78,1.78,0,0,1,1.43-.62A1.38,1.38,0,0,1,316.88,320.49Z" style="fill:#fff"></path><path d="M322,317.32l-.4,5.39H321l0-.61a1.79,1.79,0,0,1-1.42.65,1.73,1.73,0,0,1-1.8-2,2,2,0,0,1,2.09-2,1.5,1.5,0,0,1,1.3.62l.16-2.12Zm-1,3.46a1.15,1.15,0,0,0-1.18-1.35,1.39,1.39,0,0,0-1.4,1.35,1.17,1.17,0,0,0,1.19,1.36A1.39,1.39,0,0,0,321.09,320.78Z" style="fill:#fff"></path><path d="M328.14,320.45h-1.32l-.09,1.31h-.61l.1-1.31H324.9l0-.57h1.32l.1-1.31H327l-.1,1.31h1.32Z" style="fill:#fff"></path><g id="freepik--group--inject-27"><path d="M244.2,311.54a23.46,23.46,0,0,1-2,4.5l-.57-.82A44.13,44.13,0,0,0,244.2,311.54Z" style="fill:#ebb376"></path><path d="M245.37,306a23.44,23.44,0,0,1-1.16,5.54h0a23.46,23.46,0,0,1-2,4.5,24.57,24.57,0,0,1-2.82,3.89c-.29.34-.6.66-.9,1-.49.49-1,1-1.53,1.43-.52-3.56-.8-6.62-.8-6.62l.1-.11h0Z" style="fill:#263238"></path><path d="M245.37,306a23.44,23.44,0,0,1-1.16,5.54h0a23.46,23.46,0,0,1-2,4.5,24.57,24.57,0,0,1-2.82,3.89c-.29.34-.6.66-.9,1-.49.49-1,1-1.53,1.43-.52-3.56-.8-6.62-.8-6.62l.1-.11h0Z" style="fill:#fff;opacity:0.6000000000000001"></path><path d="M236.85,322.39a24,24,0,0,1-3.27,2.38,23.6,23.6,0,0,1-4.76,2.26h0a5.51,5.51,0,0,1-2.35.68h0a23,23,0,0,1-5.32.63c-.35,0-.69,0-1,0a22.61,22.61,0,0,1-2.89-.31,21.43,21.43,0,0,1-3-.78,16.89,16.89,0,0,1-1.83-.71l0-.36-.1-1.28-.31-4.17H212a49.1,49.1,0,0,0,5.07-.35,33.17,33.17,0,0,0,5.72-1.16,15.51,15.51,0,0,0,2.38-.93,10.29,10.29,0,0,0,1-.57,10.67,10.67,0,0,1,4.24.75h0l.15.05h0A20.64,20.64,0,0,1,236.85,322.39Z" style="fill:#263238"></path><path d="M236.85,322.39a24,24,0,0,1-3.27,2.38,23.6,23.6,0,0,1-4.76,2.26h0a5.51,5.51,0,0,1-2.35.68h0a23,23,0,0,1-5.32.63c-.35,0-.69,0-1,0a22.61,22.61,0,0,1-2.89-.31,21.43,21.43,0,0,1-3-.78,16.89,16.89,0,0,1-1.83-.71l0-.36-.1-1.28-.31-4.17H212a49.1,49.1,0,0,0,5.07-.35,33.17,33.17,0,0,0,5.72-1.16,15.51,15.51,0,0,0,2.38-.93,10.29,10.29,0,0,0,1-.57,10.67,10.67,0,0,1,4.24.75h0l.15.05h0A20.64,20.64,0,0,1,236.85,322.39Z" style="fill:#fff;opacity:0.4"></path><path d="M236.9,322.35a.28.28,0,0,1,0,.1l-.06-.06a24,24,0,0,1-3.27,2.38,23.6,23.6,0,0,1-4.76,2.26h0a5.51,5.51,0,0,1-2.35.68h0a23,23,0,0,1-5.32.63c-.35,0-.69,0-1,0a22.61,22.61,0,0,1-2.89-.31,21.43,21.43,0,0,1-3-.78,16.89,16.89,0,0,1-1.83-.71,16.54,16.54,0,0,1-2.13-1.11l1.38-.36a4.91,4.91,0,0,0,.63-.17c1-.27,2-.55,3-.83,2.19-.63,4.19-1.26,6-1.88,1.49-.51,2.86-1,4.12-1.49l.36-.13c1.24-.49,2.36-.95,3.37-1.38h0l.55-.23.92-.42h0s0,0,0,0h0l.89-.4a45.31,45.31,0,0,0,4.69-2.47h.06c.76,1.78,1.49,3.56,2.17,5.33C237.94,321.41,237.43,321.89,236.9,322.35Z" style="fill:#263238"></path><path d="M228.82,327h0a5.51,5.51,0,0,1-2.35.68h0a14.13,14.13,0,0,1-6.13-.59,13.27,13.27,0,0,1-1.94-.82,13,13,0,0,1-3.16-2.26,6.87,6.87,0,0,0,1.52-2.58h0a9.37,9.37,0,0,0,.33-1.1,22.63,22.63,0,0,0,.46-6.39c-.05-1.2-.16-2.38-.31-3.48-.09-.7-.19-1.37-.29-2-.05-.34-.11-.65-.17-.94l.51.4.67.53,2.46,1.94,5.27,4.12h0a.15.15,0,0,0,0,.09,17.86,17.86,0,0,0-.4,2,9.6,9.6,0,0,0-.09,1.6,5.39,5.39,0,0,0,.55,2.28c.06.11.12.22.2.34a5.42,5.42,0,0,0,3.9,2.15A2.85,2.85,0,0,1,228.82,327Z" style="fill:#ebb376"></path><path d="M218,311.55a12.13,12.13,0,0,0,7.88,9.33c-1.09-1.65-.82-4-.26-6.22a.22.22,0,0,1,0-.09l-5.27-4.14C220.21,311.27,217.92,310.72,218,311.55Z" style="opacity:0.2;isolation:isolate"></path><path d="M215.21,297.36a9.32,9.32,0,0,1,11.38-5.47,7.32,7.32,0,0,1,3.19,2.15h0c2.17,1.19,3.29,5,2.88,7.48h0c.06.53.09,1.07.11,1.6.44,1.44,2.49,2.9,1,7.31-1.86,5.49-7.82,6.91-11.48,6h0a7.44,7.44,0,0,1-4.28-2,8.76,8.76,0,0,1-1-1.08c-2.21-2.83-2.17-6.39-2.47-12A9.08,9.08,0,0,1,215.21,297.36Z" style="fill:#ebb376"></path><path d="M224.19,302.49c0,.51.26.91.6.89s.62-.47.62-1-.27-.91-.61-.89S224.19,302,224.19,302.49Z" style="fill:#263238"></path><path d="M230,302.08c0,.52.28.92.61.89s.62-.46.62-1-.27-.91-.61-.89S230,301.59,230,302.08Z" style="fill:#263238"></path><path d="M228.17,302.47a16.81,16.81,0,0,0,2.45,4.23,3.11,3.11,0,0,1-2.49.64Z" style="fill:#d58745"></path><path d="M222.24,300.51a.3.3,0,0,0,.31-.09,2.65,2.65,0,0,1,2.11-.77.34.34,0,0,0,.37-.24.29.29,0,0,0-.22-.36h0a3.21,3.21,0,0,0-2.66.95.31.31,0,0,0,0,.43h0Z" style="fill:#263238"></path><path d="M232.34,300.28a.34.34,0,0,0,.17,0,.3.3,0,0,0,0-.43h0a2.81,2.81,0,0,0-2.61-.76.32.32,0,0,0-.24.36h0a.29.29,0,0,0,.36.22h0a2.26,2.26,0,0,1,2,.64A.33.33,0,0,0,232.34,300.28Z" style="fill:#263238"></path><path d="M230.1,294.11c-2.66-1.25-3,.89-3,.89s-1.64-2.09-3.59-1.77-5,4-5.2,4.51.66,1.43.66,1.43-.65,5.83-.85,7.44l-2.7,4.36a24.77,24.77,0,0,1-3.09-14c.55-8.31,16.86-7.9,16.86-7.9Z" style="fill:#263238"></path><path d="M211.65,308.57a5.51,5.51,0,0,0,3.76,2.4c2.06.31,3-1.63,2.33-3.47-.6-1.64-2.4-3.82-4.43-3.27A2.83,2.83,0,0,0,211.65,308.57Z" style="fill:#ebb376"></path><path d="M227.75,309.2a23.27,23.27,0,0,0-1.49,2.77l-.52-.1c-2.35-.51-3.21-1.54-3.45-2.52a3.43,3.43,0,0,1,.34-2.3,10.51,10.51,0,0,0,4.32,2C227.43,309.14,227.75,309.2,227.75,309.2Z" style="fill:#263238"></path><path d="M227,309l-.46.81c-2.21-.48-3.67-1.13-4.17-2a3.25,3.25,0,0,1,.31-.81A10.51,10.51,0,0,0,227,309Z" style="fill:#fff"></path><path d="M225.74,311.87c-2.35-.51-3.21-1.54-3.45-2.52a7.11,7.11,0,0,1,2.45,1.09A2.66,2.66,0,0,1,225.74,311.87Z" style="fill:#de5753"></path><path d="M227.09,295a2.09,2.09,0,0,1,1.79-.92c1.22,0,1.19,3.09,2.41,3.67s2.74.68,3-1.84a7,7,0,0,0-5.09-6.79,7.47,7.47,0,0,0-5.53.35,9.48,9.48,0,0,0-4,.11c-1.93.54-2.79,1.87-4.87,7.2-.66,1.68-1.85,2-2.51,3.26s-1.87,4.78,3.39,3.34,7.1-4.51,7.07-7S225.51,293.65,227.09,295Z" style="fill:#263238"></path><path d="M221.24,322.17l-.92,5-.22,1.19a22.61,22.61,0,0,1-2.89-.31,21.43,21.43,0,0,1-3-.78,16.89,16.89,0,0,1-1.83-.71,16.54,16.54,0,0,1-2.13-1.11,14.26,14.26,0,0,1-1.33-.85l2.87-1.68.16-2.17,4.8.75h0Z" style="fill:#263238"></path><path d="M221.24,322.17l-.92,5-.22,1.19a22.61,22.61,0,0,1-2.89-.31,21.43,21.43,0,0,1-3-.78,16.89,16.89,0,0,1-1.83-.71,16.54,16.54,0,0,1-2.13-1.11,14.26,14.26,0,0,1-1.33-.85l2.87-1.69.16-2.17H212l4.74.75Z" style="fill:#fff;opacity:0.6000000000000001"></path><path d="M221.24,322.17l-2.86,4.14-1.17,1.7a21.43,21.43,0,0,1-3-.78l-1.85-1.07-.78-.45.37-5,4.8.75h0Z" style="opacity:0.2;isolation:isolate"></path><path d="M238.43,320.92c-.49.49-1,1-1.53,1.43a.28.28,0,0,1,0,.1l-.06-.06a24,24,0,0,1-3.27,2.38c-1.51-2-2.76-3.59-3.67-4.67l-.3-.34-.51-.6-.29-.32a5.9,5.9,0,0,0-.41-.46l-.14-.15-2.1-.53,1.69-1,2.92,1,5.45-2.09h0a38.24,38.24,0,0,1,3.07,4.34C239,320.27,238.73,320.59,238.43,320.92Z" style="fill:#263238"></path><path d="M238.43,320.92c-.49.49-1,1-1.53,1.43a.28.28,0,0,1,0,.1l-.06-.06a24,24,0,0,1-3.27,2.38c-1.51-2-2.76-3.59-3.67-4.67l-.3-.34-.51-.6-.29-.32a5.9,5.9,0,0,0-.41-.46l-.14-.15-2.1-.53,1.69-1,2.92,1,5.45-2.09h0a38.24,38.24,0,0,1,3.07,4.34C239,320.27,238.73,320.59,238.43,320.92Z" style="fill:#fff;opacity:0.6000000000000001"></path><polygon points="230.77 317.7 233.03 318.92 229.51 318.31 229.91 320.11 228.26 318.23 226.16 317.7 227.85 316.7 230.77 317.7" style="opacity:0.2;isolation:isolate"></polygon></g><path d="M271.44,347H247.27a1,1,0,0,1-1-1.12h0a1.24,1.24,0,0,1,1.21-1.13H271.6a1,1,0,0,1,1,1.13h0A1.22,1.22,0,0,1,271.44,347Z" style="opacity:0.30000000000000004;isolation:isolate"></path><path d="M299.27,353.76H246.76a1,1,0,0,1-1-1.12h0a1.23,1.23,0,0,1,1.21-1.12h52.51a1,1,0,0,1,1,1.12h0A1.23,1.23,0,0,1,299.27,353.76Z" style="opacity:0.30000000000000004;isolation:isolate"></path><path d="M298.85,359.44H246.33a1,1,0,0,1-1-1.12h0a1.22,1.22,0,0,1,1.2-1.12H299a1,1,0,0,1,1,1.12h0A1.22,1.22,0,0,1,298.85,359.44Z" style="opacity:0.30000000000000004;isolation:isolate"></path><path d="M241.21,361.59A24.17,24.17,0,0,1,235.84,375a25.36,25.36,0,0,1-6.7,5.82l-.71.41c-.49.27-1,.53-1.5.77a24,24,0,0,1-3.91,1.43c-.27.07-.54.14-.82.19a21.6,21.6,0,0,1-3,.51c-.75.07-1.5.11-2.26.11-.45,0-.91,0-1.36-.05a20.68,20.68,0,0,1-13.92-6.38c-.27-.28-.52-.58-.78-.87l0-.06a21.08,21.08,0,0,1-4.76-15.25A24.77,24.77,0,0,1,220.33,339,20.68,20.68,0,0,1,241.21,361.59Z" style="fill:#FF725E;isolation:isolate"></path><path d="M324.57,382.7H277.69a2.29,2.29,0,0,1-2.3-2.5l.57-7.54a2.73,2.73,0,0,1,2.67-2.5h46.88a2.29,2.29,0,0,1,2.3,2.5l-.57,7.54A2.73,2.73,0,0,1,324.57,382.7Z" style="fill:#FF725E;isolation:isolate"></path><path d="M282.71,377.29H280l-.65,1.27h-.75l2.68-5.08H282l1.92,5.08h-.76Zm-.21-.58-.91-2.49-1.28,2.49Z" style="fill:#fff"></path><path d="M288.57,373.17l-.4,5.39h-.67l.05-.61a1.76,1.76,0,0,1-1.42.65,1.73,1.73,0,0,1-1.8-2,2,2,0,0,1,2.09-2,1.52,1.52,0,0,1,1.3.62l.16-2.12Zm-.94,3.46a1.16,1.16,0,0,0-1.19-1.35,1.39,1.39,0,0,0-1.4,1.35,1.16,1.16,0,0,0,1.19,1.36A1.39,1.39,0,0,0,287.63,376.63Z" style="fill:#fff"></path><path d="M293.51,373.17l-.4,5.39h-.67l.05-.61a1.76,1.76,0,0,1-1.42.65,1.72,1.72,0,0,1-1.8-2,2,2,0,0,1,2.09-2,1.52,1.52,0,0,1,1.3.62l.16-2.12Zm-.95,3.46a1.16,1.16,0,0,0-1.19-1.35,1.38,1.38,0,0,0-1.39,1.35,1.16,1.16,0,0,0,1.19,1.36A1.38,1.38,0,0,0,292.56,376.63Z" style="fill:#fff"></path><path d="M297.47,374.38l0,.33h1.12l-.05.57h-1.1l-.24,3.28h-.7l.25-3.28h-.66l.05-.57h.65l0-.34a1.25,1.25,0,0,1,1.36-1.24,1.22,1.22,0,0,1,.76.22l-.25.53a.82.82,0,0,0-.52-.18C297.73,373.7,297.5,373.93,297.47,374.38Z" style="fill:#fff"></path><path d="M301.86,374.67l-.05.68h-.16a1.26,1.26,0,0,0-1.31,1.3l-.14,1.92h-.7l.29-3.85h.67l0,.65A1.6,1.6,0,0,1,301.86,374.67Z" style="fill:#fff"></path><path d="M302.68,373.52a.49.49,0,0,1,.5-.46.41.41,0,0,1,.44.44.5.5,0,0,1-.51.47A.41.41,0,0,1,302.68,373.52Zm0,1.19h.7l-.29,3.85h-.7Z" style="fill:#fff"></path><path d="M308,376.87h-3.12a1.19,1.19,0,0,0,1.31,1.12,1.53,1.53,0,0,0,1.14-.46l.35.45a2.06,2.06,0,0,1-1.56.62,1.77,1.77,0,0,1-1.92-2,2.07,2.07,0,0,1,2.08-2,1.7,1.7,0,0,1,1.75,2S308,376.8,308,376.87Zm-3.08-.5h2.46a1.09,1.09,0,0,0-1.15-1.11A1.31,1.31,0,0,0,305,376.37Z" style="fill:#fff"></path><path d="M312.69,376.34l-.17,2.22h-.7l.16-2.14c.06-.75-.29-1.12-1-1.12a1.24,1.24,0,0,0-1.31,1.28l-.15,2h-.7l.29-3.85h.67l0,.58a1.78,1.78,0,0,1,1.43-.62A1.38,1.38,0,0,1,312.69,376.34Z" style="fill:#fff"></path><path d="M317.85,373.17l-.4,5.39h-.67l.05-.61a1.73,1.73,0,0,1-1.42.65,1.71,1.71,0,0,1-1.79-2,2,2,0,0,1,2.09-2,1.52,1.52,0,0,1,1.29.62l.16-2.12Zm-.94,3.46a1.16,1.16,0,0,0-1.19-1.35,1.39,1.39,0,0,0-1.4,1.35,1.16,1.16,0,0,0,1.19,1.36A1.39,1.39,0,0,0,316.91,376.63Z" style="fill:#fff"></path><path d="M324,376.31h-1.31l-.1,1.3h-.61l.1-1.3h-1.32l0-.58h1.32l.1-1.3h.61l-.1,1.3H324Z" style="fill:#fff"></path><path d="M228.19,374.47s-.61-.06-1.59-.13c-1.25-.09-3.09-.2-5-.26h0c-.95,0-1.93-.05-2.88,0h-.47c-1.27.05-2.53.13-3.79.22s-2.23.21-3.35.34h0c-.44.06-.89.11-1.33.18h0l-1.52.22a28.14,28.14,0,0,0-7,1.78l-.25.1c.26.29.51.59.78.87a20.68,20.68,0,0,0,13.92,6.38c.45,0,.91.05,1.36.05.76,0,1.51,0,2.26-.11a21.6,21.6,0,0,0,3-.51c.28-.05.55-.12.82-.19a24,24,0,0,0,3.91-1.43c.51-.24,1-.5,1.5-.77l.71-.41a25.36,25.36,0,0,0,6.7-5.82C233.49,374.83,230.94,374.66,228.19,374.47Z" style="fill:#FF725E"></path><path d="M228.19,374.47s-.61-.06-1.59-.13c-1.25-.09-3.09-.2-5-.26h0c-.95,0-1.93-.05-2.88,0h-.47c-1.27.05-2.53.13-3.79.22s-2.23.21-3.35.34h0c-.44.06-.89.11-1.33.18h0l-1.52.22a28.14,28.14,0,0,0-7,1.78l-.25.1c.26.29.51.59.78.87a20.68,20.68,0,0,0,13.92,6.38c.45,0,.91.05,1.36.05.76,0,1.51,0,2.26-.11a21.6,21.6,0,0,0,3-.51c.28-.05.55-.12.82-.19a24,24,0,0,0,3.91-1.43c.51-.24,1-.5,1.5-.77l.71-.41a25.36,25.36,0,0,0,6.7-5.82C233.49,374.83,230.94,374.66,228.19,374.47Z" style="opacity:0.4;isolation:isolate"></path><path d="M216.18,343.9s6.15-3.3,10.79-.85c2.14,1.13,2.7,4,3,6.26.42,3.14.28,6.36.49,9.53a11.7,11.7,0,0,0,.84,3.85c.7,1.61,2.26,3.22,1.78,5.18-.43,1.74-2.28,2.79-3.86,3.26-4.19,1.26-8.78.56-13,.83-3.43.22-6.81,1.37-10.23,1.45a5,5,0,0,1-2.78-.55c-3.14-2-1.33-7,0-9.85,1.08-2.38.6-4.85,1.08-7.34a25,25,0,0,1,2-6.42C208.23,345.19,211.82,343,216.18,343.9Z" style="fill:#263238"></path><path d="M217.45,378.9c-5.69-1-7.12-3.62-7.12-3.62,4.11-3.29,1.82-9.49,1.82-9.49l6.8,1.67a20.31,20.31,0,0,0-.64,2.93c-.59,4.25,1.32,4.39,1.32,4.39C220.56,377.15,217.45,378.9,217.45,378.9Z" style="fill:#eec1bb"></path><path d="M219,367.46a20.31,20.31,0,0,0-.64,2.93c-3.26-.95-6.16-4.6-6.16-4.6Z" style="opacity:0.2;isolation:isolate"></path><path d="M219.93,347.6c6,.54,7.43,4,6.84,10.28-.74,7.89-3.38,13.3-10.64,10.94C206.27,365.62,209.92,346.69,219.93,347.6Z" style="fill:#eec1bb"></path><path d="M222.93,357.19a11.65,11.65,0,0,0,1.34,2.68,1.8,1.8,0,0,1-1.7.55Z" style="fill:#d4827d"></path><path d="M219.32,356.36c-.07.5-.39.89-.73.86s-.54-.44-.47-.94.4-.89.73-.87S219.39,355.86,219.32,356.36Z" style="fill:#263238"></path><path d="M218.71,355.43l1.14-.36S219.18,356,218.71,355.43Z" style="fill:#263238"></path><path d="M225.52,356.67c-.07.5-.4.89-.73.86s-.54-.44-.47-.94.39-.89.73-.87S225.59,356.17,225.52,356.67Z" style="fill:#263238"></path><path d="M224.9,355.74l1.15-.36S225.38,356.26,224.9,355.74Z" style="fill:#263238"></path><path d="M217.19,353.2a.37.37,0,0,1-.27-.12.36.36,0,0,1,0-.51,3.6,3.6,0,0,1,3.09-.77.36.36,0,0,1,.28.43.37.37,0,0,1-.44.28,2.9,2.9,0,0,0-2.43.59A.39.39,0,0,1,217.19,353.2Z" style="fill:#263238"></path><path d="M226.7,353.37a.43.43,0,0,1-.24-.08,2.41,2.41,0,0,0-2-.65.35.35,0,0,1-.44-.26.36.36,0,0,1,.26-.44,3.08,3.08,0,0,1,2.64.8.36.36,0,0,1-.23.63Z" style="fill:#263238"></path><path d="M211.65,357.25s3.64-4.74,3.85-8.64c0,0,12.76-3.84,11.34,8.45,0,0,2.95-10.76-7.37-11.94s-12.8,14.12-8.2,19.16C211.27,364.28,209.39,360.22,211.65,357.25Z" style="fill:#263238"></path><path d="M212.42,358.62a2.43,2.43,0,0,0-2.44-2.69c-1.9,0-3.43,3.82,1.06,5.17C211.69,361.3,212.17,360.67,212.42,358.62Z" style="fill:#eec1bb"></path><path d="M221.74,363.34a3.15,3.15,0,0,1-3.22-2.44.34.34,0,0,1,.26-.42.37.37,0,0,1,.43.27,2.54,2.54,0,0,0,2.72,1.87.34.34,0,0,1,.38.33.36.36,0,0,1-.32.38Z" style="fill:#263238"></path><path d="M224.63,376.6c-1.16,2.13-3.41,6-5.43,7.49-.75.07-1.5.11-2.26.11-.45,0-.91,0-1.36-.05-3.17-1.42-8.15-5.06-10.64-6.95a.9.9,0,0,1,.45-1.56l4.29-.84h0l2.07-2.2.24-.24.2.16.06.06,2.11,1.7,2.73,2.22,1.06-2.44.23-.53.65-1.49,2.47,2.05h0l2.34.63A1.27,1.27,0,0,1,224.63,376.6Z" style="fill:#FF725E"></path><path d="M224.63,376.6c-1.16,2.13-3.41,6-5.43,7.49-.75.07-1.5.11-2.26.11-.45,0-.91,0-1.36-.05-3.17-1.42-8.15-5.06-10.64-6.95a.9.9,0,0,1,.45-1.56l4.29-.84h0l2.07-2.2.24-.24.2.16.06.06,2.11,1.7,2.73,2.22,1.06-2.44.23-.53.65-1.49,2.47,2.05h0l2.34.63A1.27,1.27,0,0,1,224.63,376.6Z" style="fill:#fff;opacity:0.6000000000000001"></path><polygon points="209.72 374.79 212.92 379.93 217.09 377.03 220.76 378.9 221.54 374.08 219.07 372.02 217.13 376.5 212.03 372.35 209.72 374.79" style="fill:#fff;opacity:0.30000000000000004"></polygon><path d="M226,356.28a.36.36,0,0,1-.35-.34,7.22,7.22,0,0,0-2.57-5.66c-3-2.26-7.46-1.33-7.5-1.32a.35.35,0,0,1-.42-.28.34.34,0,0,1,.27-.41c.2,0,4.87-1,8.08,1.45a7.93,7.93,0,0,1,2.85,6.19.36.36,0,0,1-.34.37Z" style="fill:#263238"></path><path d="M201.66,377.77c-.27-.28-.52-.58-.78-.87l0-.06a1.65,1.65,0,0,1,.3,0h.17A4,4,0,0,1,201.66,377.77Z" style="fill:#FF725E"></path><path d="M349.38,116.93l-157.7,147L202.45,120.3a3.56,3.56,0,0,1,3.37-3.37h36.31a2.32,2.32,0,0,1,2.22,1.64l1.23,3.7a2.3,2.3,0,0,0,2.21,1.62h61.82a2.75,2.75,0,0,0,2.45-1.59l1.79-3.73a2.79,2.79,0,0,1,2.46-1.64Z" style="fill:#fff;opacity:0.2"></path><polygon points="354.73 129.25 353.2 149.69 188.76 302.94 190.29 282.49 354.73 129.25" style="fill:#fff;opacity:0.2"></polygon><path d="M304.81,149.69l-.31,4.22h-.6l.28-3.7h-.95l0-.52Z" style="fill:#FF725E"></path><path d="M308.42,153.39l0,.52h-3l0-.41,1.85-1.66c.47-.43.58-.7.6-1,0-.44-.26-.71-.85-.71a1.43,1.43,0,0,0-1.11.46l-.38-.35a2.06,2.06,0,0,1,1.59-.64c.88,0,1.41.45,1.36,1.17a1.85,1.85,0,0,1-.8,1.33l-1.38,1.25Z" style="fill:#FF725E"></path></g><g id="freepik--speech-bubble--inject-27"><circle cx="106.74" cy="124.77" r="13.94" transform="translate(-33.52 210.15) rotate(-80.78)" style="fill:#FF725E;isolation:isolate"></circle><path d="M117,124.78a10.23,10.23,0,1,1-10.23-10.24A10.23,10.23,0,0,1,117,124.78Z" style="fill:#fff;opacity:0.30000000000000004"></path><path d="M108.69,127.34h0a3.83,3.83,0,1,0-3.88,0h0a5.51,5.51,0,0,0-3.56,5.16,5.77,5.77,0,0,0,.08.94,10.27,10.27,0,0,0,10.88,0,4.84,4.84,0,0,0,.08-.94A5.5,5.5,0,0,0,108.69,127.34Z" style="fill:#fff"></path><rect x="112.26" y="116.5" width="4.19" height="4.19" rx="0.48" style="fill:#fff"></rect><path d="M115.65,118.82H114.6v1h-.48v-1h-1.05v-.45h1.05v-1h.48v1h1.05Z" style="fill:#FF725E;isolation:isolate"></path><polygon points="112.46 136.63 119.63 140.35 116.65 132.97 112.46 136.63" style="fill:#FF725E"></polygon></g><g id="freepik--Character--inject-27"><g id="freepik--group--inject-27"><path d="M124.86,409.9h-9.33a.67.67,0,0,0-.65.53l-1.51,6.83a1.13,1.13,0,0,0,.87,1.34.71.71,0,0,0,.25,0c3,0,5.21-.23,9-.23,2.33,0,9.37.24,12.59.24s3.64-3.18,2.32-3.47c-5.91-1.29-10.36-3.07-12.26-4.77A1.85,1.85,0,0,0,124.86,409.9Z" style="fill:#263238"></path><path d="M164.38,409.66h-9.32a.67.67,0,0,0-.65.52L152.9,417a1.14,1.14,0,0,0,.87,1.35l.25,0c3-.05,5.21-.23,9-.23,2.33,0,9.37.24,12.59.24s3.64-3.18,2.32-3.47c-5.91-1.29-10.36-3.08-12.26-4.78A1.85,1.85,0,0,0,164.38,409.66Z" style="fill:#263238"></path><path d="M124.86,409.9h-9.33a.67.67,0,0,0-.65.53l-1.51,6.83a1.13,1.13,0,0,0,.87,1.34.71.71,0,0,0,.25,0c3,0,5.21-.23,9-.23,2.33,0,9.37.24,12.59.24s3.64-3.18,2.32-3.47c-5.91-1.29-10.36-3.07-12.26-4.77A1.85,1.85,0,0,0,124.86,409.9Z" style="fill:#fff;opacity:0.30000000000000004"></path><path d="M164.38,409.66h-9.32a.67.67,0,0,0-.65.52L152.9,417a1.14,1.14,0,0,0,.87,1.35l.25,0c3-.05,5.21-.23,9-.23,2.33,0,9.37.24,12.59.24s3.64-3.18,2.32-3.47c-5.91-1.29-10.36-3.08-12.26-4.78A1.85,1.85,0,0,0,164.38,409.66Z" style="fill:#fff;opacity:0.30000000000000004"></path><path d="M120.29,235.41l38.05-5c3.87,21.15,18.29,113.72,9.59,180.39H154.15s1.27-101.25-10.9-134c-1.4,17.51-15.63,133.9-15.63,133.9h-14s2.1-43.79,4.2-85.14C119.1,299.54,120.23,240.76,120.29,235.41Z" style="fill:#263238"></path><path d="M143.25,276.82a108.87,108.87,0,0,1,4.55,17.62c1.14-15.58-3.41-32.11-3.41-32.11Z" style="opacity:0.2;isolation:isolate"></path><path d="M166.31,176.19s4.44-.95,4.75-.19,1.28,7.32.87,8.35a14.15,14.15,0,0,1-1.78,2.67l1.26,4.18-4.95,3.85-.57-5.22s-3.25-2.13-3.11-5.67S166.31,176.19,166.31,176.19Z" style="fill:#b97964"></path><path d="M166.31,176.19s4.44-.95,4.75-.19,1.28,7.32.87,8.35a14.15,14.15,0,0,1-1.78,2.67l1.26,4.18-4.95,3.85-.57-5.22s-3.25-2.13-3.11-5.67S166.31,176.19,166.31,176.19Z" style="opacity:0.2;isolation:isolate"></path><path d="M154.66,182.31c3,1.32,8.77,14.65,10.1,15.13s.89-4.94.89-4.94l6-2.33s4.07,11.81,1.23,14.89c-2.24,2.44-7.19,3.69-18.17-4.06C144.58,193.88,154.66,182.31,154.66,182.31Z" style="fill:#FF725E"></path><path d="M154.66,182.31c3,1.32,8.77,14.65,10.1,15.13s.89-4.94.89-4.94l6-2.33s4.07,11.81,1.23,14.89c-2.24,2.44-7.19,3.69-18.17-4.06C144.58,193.88,154.66,182.31,154.66,182.31Z" style="opacity:0.1;isolation:isolate"></path><path d="M114.61,184.53s13.2-8.85,40.05-2.22c0,0,.11,32.62,3.68,48.09l-38,5S111.86,201.72,114.61,184.53Z" style="fill:#FF725E"></path><path d="M114.61,184.53s13.2-8.85,40.05-2.22c0,0,.11,32.62,3.68,48.09l-38,5S111.86,201.72,114.61,184.53Z" style="fill:#fff;opacity:0.2;isolation:isolate"></path><path d="M158.48,182.71a.68.68,0,0,0,.78.7l7.69-.84a.9.9,0,0,0,.79-.86l.07-15.37a.78.78,0,0,0-.79-.81l-7.7.84a1,1,0,0,0-.77,1Z" style="fill:#263238"></path><path d="M159.39,167.15l-.08,15.52a.59.59,0,0,0,.69.66l6.52-.71c.44-.05,1.21-.37,1.22-.81l.07-15.58c0-.43-.78-.7-1.22-.65l-6.53.71A.79.79,0,0,0,159.39,167.15Z" style="fill:#fff;opacity:0.30000000000000004"></path><polygon points="120.29 235.41 158.34 230.4 158.56 235.32 120.42 239.79 120.29 235.41"></polygon><path d="M149.79,231.65a1.76,1.76,0,0,0-1.38-.4l-3.57.47a1.77,1.77,0,0,0-1.55,1.84l.1,2.3a1.83,1.83,0,0,0,.64,1.28,1.77,1.77,0,0,0,1.23.42l.15,0,3.58-.47a1.78,1.78,0,0,0,1.54-1.85l-.1-2.28A1.79,1.79,0,0,0,149.79,231.65Zm-.93,4.5-3.57.48a.82.82,0,0,1-.67-.19.85.85,0,0,1-.31-.63l-.1-2.29a.85.85,0,0,1,.75-.89l3.57-.47h.08a.86.86,0,0,1,.9.83l0,.34h-.15l-1,.12a.61.61,0,0,0,.15,1.22l1-.13h.05l0,.75A.85.85,0,0,1,148.86,236.15Z" style="fill:#fff"></path><path d="M148.88,195.46l7.05-6.65s-.28-9.23,0-10.26,7.77-1.67,8.56-1.84,1.87,8.93,1.23,10-3.56,2.23-3.56,2.23l-7.2,9.91Z" style="fill:#b97964"></path><path d="M114.61,184.53c4.15-3.42,20.52,14.72,22.44,15.83s15.31-9.18,15.31-9.18l5,5.1s-11.62,12.15-18.75,15-20.09-9.75-22.16-13.13C111.05,189.39,114.61,184.53,114.61,184.53Z" style="fill:#FF725E"></path><path d="M146.36,178.86c0,1.91-3.43,5.76-3.43,5.76h-1.55l-7.26,2.15s-8.32-3.55-9.63-6.54,3.65-7,7.59-6.61,9.17,3.71,9.17,3.71S146.36,177,146.36,178.86Z" style="fill:#FF725E"></path><path d="M142,184.62h-.57l-7.26,2.15s-8.32-3.55-9.63-6.54c-.65-3.64,3.66-6.42,10-5S142,184.62,142,184.62Z" style="opacity:0.2;isolation:isolate"></path><path d="M141,182.8a5.48,5.48,0,0,1-3.21-4.27,9,9,0,0,1,.4-3.55c.18-.64.41-1.28.65-1.9l-8.74-9.7c.33,5.3.11,14.88-4,17.85C133.23,187.79,141,182.8,141,182.8Z" style="fill:#b97964"></path><path d="M131.47,168.7c-.84,6.26,3.88,9,6.29,9.83a9,9,0,0,1,.4-3.55Z" style="opacity:0.2;isolation:isolate"></path><path d="M150.32,150s1.7,9.77-3.42,13.65-5.51-14.36-5.51-14.36Z" style="fill:#263238"></path><path d="M150.32,150s1.7,9.77-3.42,13.65-5.51-14.36-5.51-14.36Z" style="fill:#fff;opacity:0.30000000000000004"></path><path d="M132,171.74A8.87,8.87,0,0,0,142.26,175a9.91,9.91,0,0,0,5.55-4.73,9.23,9.23,0,0,0,.45-1c2.43-6,3-16.53-3.4-20.32a9.63,9.63,0,0,0-13.21,3.31,9.49,9.49,0,0,0-1.35,4.27C129.67,163.57,129,167.67,132,171.74Z" style="fill:#b97964"></path><path d="M140.58,160.07c-.12.56.15,1.07.52,1.13s.74-.37.83-.93-.16-1.08-.52-1.13S140.67,159.5,140.58,160.07Z" style="fill:#263238"></path><path d="M147,161c-.12.56.16,1.07.52,1.13s.74-.37.83-.93-.15-1.07-.52-1.13S147.08,160.48,147,161Z" style="fill:#263238"></path><path d="M144.92,161a19.88,19.88,0,0,0,2,5.25,3.33,3.33,0,0,1-2.81.11Z" style="fill:#a24e3f"></path><path d="M138.9,157.7a.38.38,0,0,0,.34-.08,2.71,2.71,0,0,1,2.3-.8.34.34,0,0,0,.4-.26.33.33,0,0,0-.26-.4h0a3.38,3.38,0,0,0-2.91,1,.34.34,0,0,0,0,.48h0A.42.42,0,0,0,138.9,157.7Z" style="fill:#263238"></path><path d="M142.75,169.16h0a5.17,5.17,0,0,1-4.24-2.19.17.17,0,0,1,.06-.24.17.17,0,0,1,.24,0h0a5,5,0,0,0,3.95,2,.17.17,0,0,1,.17.16v0a.17.17,0,0,1-.16.18Z" style="fill:#263238"></path><path d="M150.08,159.22a.31.31,0,0,0,.19,0,.33.33,0,0,0,.23-.41h0a3.37,3.37,0,0,0-2.13-2.23.34.34,0,0,0-.41.23h0a.36.36,0,0,0,.23.42h0a2.7,2.7,0,0,1,1.66,1.79A.33.33,0,0,0,150.08,159.22Z" style="fill:#263238"></path><path d="M136.7,148.62l.07,3.13a2.31,2.31,0,0,0-1.45,2.78c.74,2.7-1.14,6.58-3.3,8,0,0,.06-1.13-.92-1s-1.3,6.06.27,9c0,0-2.55-2.81-3.51-9.12-.9-5.84-.61-10.6.78-12.68Z" style="fill:#263238"></path><path d="M136.7,148.62l.07,3.13a2.31,2.31,0,0,0-1.45,2.78c.74,2.7-1.14,6.58-3.3,8,0,0,.06-1.13-.92-1s-1.3,6.06.27,9c0,0-2.55-2.81-3.51-9.12-.9-5.84-.61-10.6.78-12.68Z" style="fill:#fff;opacity:0.30000000000000004"></path><path d="M126.4,161.82a6.71,6.71,0,0,0,3.31,3.91c2.09,1.07,3.6-.7,3.41-2.92-.19-2-1.48-5-3.78-5.08S125.77,159.73,126.4,161.82Z" style="fill:#b97964"></path><path d="M136.77,151.75s6.32,2,6.16,0c0,0,4.33,2.11,5.95.91,0,0,3.36,1,4-2.21S148,146,148,146s1.59-2.62-1-3.87-8.75,1.25-8.75,1.25a2.85,2.85,0,0,0-2.84-3c-3-.25-3.95,4.24-3.95,4.24s-2.39-2.49-4,0a4.16,4.16,0,0,0,0,4.67s-1.63,2.59,1,3.76S136.77,151.75,136.77,151.75Z" style="fill:#263238"></path><path d="M134.12,186.77s-10-11.59-11.87-11.68-2.18,3.44-2.18,3.44-4.36.91-4,3.78,17.06,5.46,17.06,5.46Z" style="fill:#FF725E"></path><path d="M134.12,213.62s-2.4,6.92-6.78,10.25c0,0,.36,7.4.73,7.36l27.86-3-.57-7.85s-4.17-3.62-4.83-6.73Z" style="opacity:0.1;isolation:isolate"></path></g></g></svg>